<svg xmlns="http://www.w3.org/2000/svg" xmlns:xlink="http://www.w3.org/1999/xlink" width="340" height="271" viewBox="0 0 340 271">
  <defs>
    <rect id="rect-1" width="340" height="271" x="0" y="0"/>
    <mask id="mask-2" maskContentUnits="userSpaceOnUse" maskUnits="userSpaceOnUse">
      <rect width="340" height="271" x="0" y="0" fill="black"/>
      <use fill="white" xlink:href="#rect-1"/>
    </mask>
    <linearGradient id="linearGradient-7" x1="319.564" x2="257.209" y1="145.181" y2="364.146" gradientUnits="userSpaceOnUse">
      <stop offset="0" stop-color="rgb(1,1,1)" stop-opacity="0"/>
      <stop offset=".95" stop-color="rgb(1,1,1)"/>
    </linearGradient>
    <linearGradient id="linearGradient-10" x1="105.631" x2="156.161" y1="226.893" y2="226.893" gradientUnits="userSpaceOnUse">
      <stop offset="0" stop-color="rgb(1,1,1)" stop-opacity="0"/>
      <stop offset=".95" stop-color="rgb(1,1,1)"/>
    </linearGradient>
    <linearGradient id="linearGradient-13" x1="144.07" x2="197.073" y1="218.215" y2="213.17" gradientUnits="userSpaceOnUse">
      <stop offset="0" stop-color="rgb(1,1,1)" stop-opacity="0"/>
      <stop offset=".95" stop-color="rgb(1,1,1)"/>
    </linearGradient>
    <linearGradient id="linearGradient-15" x1="152.223" x2="170.04" y1="67.811" y2="67.811" gradientUnits="userSpaceOnUse">
      <stop offset="0" stop-color="rgb(229,198,214)"/>
      <stop offset=".42" stop-color="rgb(234,212,208)"/>
      <stop offset="1" stop-color="rgb(240,233,203)"/>
    </linearGradient>
    <linearGradient id="linearGradient-18" x1="217.129" x2="161.01" y1="47.036" y2="67.84" gradientUnits="userSpaceOnUse">
      <stop offset="0" stop-color="rgb(1,1,1)" stop-opacity="0"/>
      <stop offset=".95" stop-color="rgb(1,1,1)"/>
    </linearGradient>
    <linearGradient id="linearGradient-21" x1="175.941" x2="123.979" y1="70.191" y2="64.099" gradientUnits="userSpaceOnUse">
      <stop offset="0" stop-color="rgb(1,1,1)" stop-opacity="0"/>
      <stop offset=".95" stop-color="rgb(1,1,1)"/>
    </linearGradient>
    <linearGradient id="linearGradient-24" x1="110.463" x2="161.457" y1="52.407" y2="52.407" gradientUnits="userSpaceOnUse">
      <stop offset="0" stop-color="rgb(255,255,255)" stop-opacity="0"/>
      <stop offset=".95" stop-color="rgb(255,255,255)"/>
    </linearGradient>
    <linearGradient id="linearGradient-27" x1="180.88" x2="-9.924" y1="132.311" y2="165.093" gradientUnits="userSpaceOnUse">
      <stop offset="0" stop-color="rgb(1,1,1)" stop-opacity="0"/>
      <stop offset=".95" stop-color="rgb(1,1,1)"/>
    </linearGradient>
    <linearGradient id="linearGradient-30" x1="177.089" x2="179.895" y1="86.631" y2="186.234" gradientUnits="userSpaceOnUse">
      <stop offset="0" stop-color="rgb(1,1,1)" stop-opacity="0"/>
      <stop offset=".95" stop-color="rgb(1,1,1)"/>
    </linearGradient>
    <linearGradient id="linearGradient-32" x1="175.46" x2="221.192" y1="73.732" y2="73.732" gradientUnits="userSpaceOnUse">
      <stop offset="0" stop-color="rgb(229,198,214)"/>
      <stop offset=".42" stop-color="rgb(234,212,208)"/>
      <stop offset="1" stop-color="rgb(240,233,203)"/>
    </linearGradient>
    <linearGradient id="linearGradient-35" x1="118.423" x2="149.298" y1="51.28" y2="51.28" gradientUnits="userSpaceOnUse">
      <stop offset="0" stop-color="rgb(1,1,1)" stop-opacity="0"/>
      <stop offset=".95" stop-color="rgb(1,1,1)"/>
    </linearGradient>
    <linearGradient id="linearGradient-37" x1="110.966" x2="134.831" y1="43.295" y2="43.295" gradientUnits="userSpaceOnUse">
      <stop offset="0" stop-color="rgb(1,1,1)" stop-opacity="0"/>
      <stop offset=".95" stop-color="rgb(1,1,1)"/>
    </linearGradient>
    <linearGradient id="linearGradient-40" x1="145.434" x2="9.918" y1="139.965" y2="184.512" gradientUnits="userSpaceOnUse">
      <stop offset="0" stop-color="rgb(1,1,1)" stop-opacity="0"/>
      <stop offset=".95" stop-color="rgb(1,1,1)"/>
    </linearGradient>
    <linearGradient id="linearGradient-42" x1="52.663" x2="324.526" y1="193.705" y2="63.424" gradientUnits="userSpaceOnUse">
      <stop offset="0" stop-color="rgb(1,1,1)" stop-opacity="0"/>
      <stop offset=".95" stop-color="rgb(1,1,1)"/>
    </linearGradient>
    <linearGradient id="linearGradient-45" x1="106.186" x2="139.544" y1="186.326" y2="186.326" gradientUnits="userSpaceOnUse">
      <stop offset="0" stop-color="rgb(1,1,1)" stop-opacity="0"/>
      <stop offset=".95" stop-color="rgb(1,1,1)"/>
    </linearGradient>
    <linearGradient id="linearGradient-48" x1="108.053" x2="48.504" y1="133.741" y2="86.465" gradientUnits="userSpaceOnUse">
      <stop offset="0" stop-color="rgb(1,1,1)" stop-opacity="0"/>
      <stop offset=".95" stop-color="rgb(1,1,1)"/>
    </linearGradient>
    <linearGradient id="linearGradient-51" x1="106.661" x2="137.213" y1="160.963" y2="206.769" gradientUnits="userSpaceOnUse">
      <stop offset="0" stop-color="rgb(1,1,1)" stop-opacity="0"/>
      <stop offset=".95" stop-color="rgb(1,1,1)"/>
    </linearGradient>
    <linearGradient id="linearGradient-54" x1="94.27" x2="69.642" y1="202.13" y2="155.483" gradientUnits="userSpaceOnUse">
      <stop offset="0" stop-color="rgb(1,1,1)" stop-opacity="0"/>
      <stop offset=".95" stop-color="rgb(1,1,1)"/>
    </linearGradient>
    <linearGradient id="linearGradient-57" x1="198.057" x2="219.059" y1="101.434" y2="101.434" gradientUnits="userSpaceOnUse">
      <stop offset="0" stop-color="rgb(255,255,255)" stop-opacity="0"/>
      <stop offset=".95" stop-color="rgb(255,255,255)"/>
    </linearGradient>
    <linearGradient id="linearGradient-61" x1="63.362" x2="126.282" y1="161.809" y2="170.939" gradientUnits="userSpaceOnUse">
      <stop offset="0" stop-color="rgb(1,1,1)" stop-opacity="0"/>
      <stop offset=".95" stop-color="rgb(1,1,1)"/>
    </linearGradient>
    <linearGradient id="linearGradient-64" x1="272.966" x2="163.222" y1="184.261" y2="414.991" gradientUnits="userSpaceOnUse">
      <stop offset="0" stop-color="rgb(1,1,1)" stop-opacity="0"/>
      <stop offset=".95" stop-color="rgb(1,1,1)"/>
    </linearGradient>
    <linearGradient id="linearGradient-67" x1="43.882" x2="-55.05" y1="193.144" y2="393.192" gradientUnits="userSpaceOnUse">
      <stop offset="0" stop-color="rgb(1,1,1)" stop-opacity="0"/>
      <stop offset=".95" stop-color="rgb(1,1,1)"/>
    </linearGradient>
  </defs>
  <g>
    <use fill="none" xlink:href="#rect-1"/>
    <g mask="url(#mask-2)">
      <g opacity=".24">
        <path fill="rgb(61,128,252)" fill-rule="evenodd" d="M313.06885879 264.38759314c-.53183346.26884353-1.06366692.53768706-1.59550038.78365029-10.25193863 4.72478207-21.76556728 5.7543956-33.04156821 5.81731642-49.34169801.36036473-98.39484808-15.87320852-147.42536693-9.9643709-30.3597697 3.65512802-63.73514827 15.1181586-89.57999135-1.38425818-12.11335574-7.75070182-20.15309348-20.48930916-26.88587879-33.2965574-8.69038506-16.51957701-16.1077645-34.81237732-14.24634739-53.44266205.23174509-2.31012199.6097067-4.60285183 1.13156056-6.86409017 4.2999301-19.38533466 17.9408926-35.95639235 32.28908044-49.94769614 16.01158186-15.6501256 33.94681665-30.09331533 44.6230905-49.81613442 8.48670416-15.58720476 12.249143-34.1488486 24.4756548-46.93321654 34.38812527-36.03647339 113.35973641-14.66055258 149.46217592 7.63630032 23.36106766 14.44318973 42.27510234 37.59233383 47.79146005 64.70549 3.39468166 16.77126032 1.69734083 34.43485236 6.55173561 50.85146802 7.64369155 25.99202144 30.91423437 46.3898094 33.23959131 73.38856407 1.68036742 19.5569369-9.48247745 39.6000802-26.78969614 48.46619668z"/>
      </g>
      <g opacity=".24">
        <path fill="rgb(61,128,252)" fill-rule="evenodd" d="M313.06885879 264.38759314c-.53183346.26884353-1.06366692.53768706-1.59550038.78365029-10.25193863 4.72478207-21.76556728 5.7543956-33.04156821 5.81731642-49.34169801.36036473-98.39484808-15.87320852-147.42536693-9.9643709-30.3597697 3.65512802-63.73514827 15.1181586-89.57999135-1.38425818-12.11335574-7.75070182-20.15309348-20.48930916-26.88587879-33.2965574-8.69038506-16.51957701-16.1077645-34.81237732-14.24634739-53.44266205.23174509-2.31012199.6097067-4.60285183 1.13156056-6.86409017.70569051-.28325609 1.42738602-.5239223 2.16128066-.72072947 16.23223616-4.51885936 36.38532965.62920826 47.14647053 13.85974207 6.95343961 8.5801127 10.23496522 19.49973616 14.74989184 29.62426916 4.51492661 10.124533 11.2307385 20.26050615 21.59017539 23.88703379 16.97340832 5.93171792 35.52534363-7.83650295 52.97400739-3.71804884 9.92378606 2.37383118 17.69760708 10.1474133 27.24232036 13.77394094 27.79112723 10.58785909 60.3234932-16.30221416 87.33950145-3.78668975 3.10047592 1.43573887 6.00292874 3.38056441 9.26182314 4.34153704 4.09624921 1.23553623 8.43578394.8751715 12.70742504.78937037 6.81330048-.1568419 13.62508197.37394028 20.33414317 1.58446081 3.49652212.65208857 7.1288315 1.56730059 9.65221154 4.07841358 1.81615469 1.79038352 2.8571904 4.2328556 3.76809665 6.62384701 1.0184045 2.61407434 1.92931074 5.30250966 2.71574533 8.01382528z"/>
      </g>
      <path fill="rgb(61,128,252)" fill-rule="evenodd" d="M274.79948081 171.60797433c-.4186774-12.50408426 2.26312111-24.87660679 5.06373349-37.06036684 11.8417812 10.65649999 23.92119013 21.61616396 31.50830366 35.65894843 2.82890138 5.23386876 4.99018204 10.86814277 8.3735481 15.73020664 4.15848504 5.99463875 9.9973375 10.65077992 13.99174627 16.7541001 7.63237594 11.65751313 7.1231737 28.16565-1.2164276 39.31979652-.7553988 1.16731946-1.80388108 2.11087753-3.03824009 2.73419592-1.58418478.66924879-3.39468167.34892458-5.05807568-.0686409-14.62542018-3.67228824-27.04995507-14.7520738-33.0245948-28.66329654-6.46121077-15.03807755-16.02289746-27.10171602-16.59999335-44.40494333z"/>
      <path fill="url(#linearGradient-7)" fill-rule="evenodd" d="M274.79948081 171.60797433c-.4186774-12.50408426 2.26312111-24.87660679 5.06373349-37.06036684 11.8417812 10.65649999 23.92119013 21.61616396 31.50830366 35.65894843 2.82890138 5.23386876 4.99018204 10.86814277 8.3735481 15.73020664 4.15848504 5.99463875 9.9973375 10.65077992 13.99174627 16.7541001 7.63237594 11.65751313 7.1231737 28.16565-1.2164276 39.31979652-.7553988 1.16731946-1.80388108 2.11087753-3.03824009 2.73419592-1.58418478.66924879-3.39468167.34892458-5.05807568-.0686409-14.62542018-3.67228824-27.04995507-14.7520738-33.0245948-28.66329654-6.46121077-15.03807755-16.02289746-27.10171602-16.59999335-44.40494333z"/>
      <path fill="rgb(96,97,97)" fill-rule="evenodd" d="M108.38086997 218.82719463c2.74969215 9.37520316 8.10197358 18.12119805 8.65078044 27.87964624.24894333 4.45593854-2.09338702 12.72144712-2.868506 17.10874475 8.5715712 1.37853811 18.90837687-2.3909914 27.49692149-3.63796779 1.29563683-.18876248 2.6535095-.4347257 3.671914-1.2641366 1.0184045-.8294109 1.52760675-2.05922706 2.00286218-3.26616291 6.87403106-17.54788308 9.79256562-36.4242734 8.5432822-55.25592587-.1980231-2.9000781-.50354446-5.84019672-1.55589577-8.54579226-.20133457-.6724114-.59506668-1.26950996-1.13156056-1.71602255-.69270885-.3763038-1.48054097-.53560447-2.2631211-.457606l-21.4034679.12012157c-6.5064732.03432045-16.77538524-.1372818-21.63543782 5.2224286-4.45269079 4.8563438-1.18813858 18.0868776.49222884 23.81267282z"/>
      <path fill="url(#linearGradient-10)" fill-rule="evenodd" d="M108.38086997 218.82719463c2.74969215 9.37520316 8.10197358 18.12119805 8.65078044 27.87964624.24894333 4.45593854-2.09338702 12.72144712-2.868506 17.10874475 8.5715712 1.37853811 18.90837687-2.3909914 27.49692149-3.63796779 1.29563683-.18876248 2.6535095-.4347257 3.671914-1.2641366 1.0184045-.8294109 1.52760675-2.05922706 2.00286218-3.26616291 6.87403106-17.54788308 9.79256562-36.4242734 8.5432822-55.25592587-.1980231-2.9000781-.50354446-5.84019672-1.55589577-8.54579226-.20133457-.6724114-.59506668-1.26950996-1.13156056-1.71602255-.69270885-.3763038-1.48054097-.53560447-2.2631211-.457606l-21.4034679.12012157c-6.5064732.03432045-16.77538524-.1372818-21.63543782 5.2224286-4.45269079 4.8563438-1.18813858 18.0868776.49222884 23.81267282z"/>
      <path fill="rgb(96,97,97)" fill-rule="evenodd" d="M172.59127367 214.40557655c-.71122816 13.93742783-.5222333 27.90692246.56578028 41.81946936.12348908.70162098.04493388 1.42434128-.22631211 2.08210735-.5997271 1.14401503-2.10470263 1.31561728-3.39468167 1.3556578 0 0-11.4287616.32032422-22.86318101-.26884352-1.58642227.1753938-3.04917862-.88445309-3.39468167-2.45963231-1.95194196-4.44449839-3.61533597-9.08347933-6.44423736-13.01889103-3.4738909-4.84490364-8.48670416-8.31698925-12.33966785-12.864449-5.57859354-6.60668678-8.41881053-15.17535934-9.7936566-23.7440319-.36209939-2.24798954-.56578029-4.79914305.85998601-6.56664627 1.26169002-1.57302066 3.39468167-2.0249066 5.34096582-2.53971336 6.78936333-1.80754375 12.88847473-5.52559259 18.88574567-9.2036009 4.80913236-2.95155878 9.66918494-5.9145577 13.95779945-9.6211664 3.49652211-3.02019967 6.99304423-8.51719188 12.33966785-6.47512505 3.30981462 1.2641366 3.42297068 4.10129387 3.39468166 7.28737573 0 4.57606011-.2263121 8.5343521 1.06366693 12.9788505 2.14996505 7.2244549 2.42719739 13.73962048 2.0481246 21.238639z"/>
      <path fill="url(#linearGradient-13)" fill-rule="evenodd" d="M172.59127367 214.40557655c-.71122816 13.93742783-.5222333 27.90692246.56578028 41.81946936.12348908.70162098.04493388 1.42434128-.22631211 2.08210735-.5997271 1.14401503-2.10470263 1.31561728-3.39468167 1.3556578 0 0-11.4287616.32032422-22.86318101-.26884352-1.58642227.1753938-3.04917862-.88445309-3.39468167-2.45963231-1.95194196-4.44449839-3.61533597-9.08347933-6.44423736-13.01889103-3.4738909-4.84490364-8.48670416-8.31698925-12.33966785-12.864449-5.57859354-6.60668678-8.41881053-15.17535934-9.7936566-23.7440319-.36209939-2.24798954-.56578029-4.79914305.85998601-6.56664627 1.26169002-1.57302066 3.39468167-2.0249066 5.34096582-2.53971336 6.78936333-1.80754375 12.88847473-5.52559259 18.88574567-9.2036009 4.80913236-2.95155878 9.66918494-5.9145577 13.95779945-9.6211664 3.49652211-3.02019967 6.99304423-8.51719188 12.33966785-6.47512505 3.30981462 1.2641366 3.42297068 4.10129387 3.39468166 7.28737573 0 4.57606011-.2263121 8.5343521 1.06366693 12.9788505 2.14996505 7.2244549 2.42719739 13.73962048 2.0481246 21.238639z"/>
      <path fill="url(#linearGradient-15)" fill-rule="evenodd" d="M160.70423004 51.7266395c1.34944604-.00253006 2.6655697.42366516 3.76243885 1.21837601.58434214.49292794 1.06690056 1.09741986 1.4201085 1.77894337 1.96891536 3.62080757 1.2390588 8.24262828 3.10613372 11.9206366.49788664.97241277 1.18813858 1.96770585 1.0184045 3.04880005-.14710288.9666927-.93919527 1.6817021-1.36353047 2.55687359-.78077679 1.61306119-.24328552 3.55788674-.67327853 5.29678958-.27072063.9545176-.72653064 1.84506064-1.34089926 2.61979441-.8330465 1.2259447-1.92485473 2.24966928-3.19665857 2.99731938-1.28939074.74647116-2.82496609.92631864-4.24900988.49764654-1.53892236-.52624692-2.6478517-1.85902443-3.643625-3.15748148-1.01559852-1.2227474-1.85556597-2.58418334-2.49509102-4.04409313-.98445768-2.49395276-.87130162-5.27390928-.73551436-7.95662452.27157454-5.53131266.5884115-17.14878528 8.39052152-16.7769804z"/>
      <path fill="rgb(96,97,97)" fill-rule="evenodd" d="M170.3960462 50.63410516c-.13258152.1419092-.28508853.26333033-.45262423.36036473-.23027688.09100478-.47743889.1300489-.72419875.1144015-1.35290487.00745435-2.70331411.11835883-4.03967118.33176436-.22824016.01481724-.4477875.09409002-.63367392.228803-.18079072.20887771-.28820473.47232419-.30552135.74932985-.39854505 2.48579482-.51245232 5.0097396-.33946816 7.52189881.05657803.80081052.1923653 1.71602255.84301261 2.17362856.52587137.29315706 1.12910942.41313297 1.72562985.3432045l2.07641362-.04004052c.17363874-.01798296.34868612.01582107.50354444.09724128.2149965.1372818.26025893.42900563.32249476.68068894.35644158 1.55586044 1.77655007 2.67127509 3.2758678 3.1746417 1.49931774.50336661 3.11179154.52052684 4.6846607.6692488 4.96755084.4804863 9.72576298 2.32807058 14.71028722 2.80283681.79410393.17820987 1.62381417-.05563622 2.21220089-.62348819l3.03824009-2.41959178c.27149617-.25013562.58857752-.44442125.93353746-.57200752.28854462-.07132606.58667732-.09451176.88261723-.0686409 3.19100077.13156173 6.7158119.67496887 9.29011216-1.22981615 1.30025172-1.06296204 2.27212078-2.4802389 2.80061237-4.08413366.68291187-1.67706388.99384652-3.4851044.91090625-5.29678958-.18925045-2.48108129-1.33773302-4.78688718-3.19665857-6.4179243-.27487553-.25846634-.59284942-.46568128-.93919526-.61204805-.4083389-.12665675-.8348912-.18273821-1.26169002-.16588218l-10.53482877-.2059227c-5.12596931-.09724128-10.25193863-.19448256-15.37790794-.1144015-1.86495442-.02126516-3.72309477.23114052-5.5163577.74932984-1.75957667.53768706-3.4625753.49192646-4.8883416 1.85330435z"/>
      <path fill="url(#linearGradient-18)" fill-rule="evenodd" d="M170.3960462 50.63410516c-.13258152.1419092-.28508853.26333033-.45262423.36036473-.23027688.09100478-.47743889.1300489-.72419875.1144015-1.35290487.00745435-2.70331411.11835883-4.03967118.33176436-.22824016.01481724-.4477875.09409002-.63367392.228803-.18079072.20887771-.28820473.47232419-.30552135.74932985-.39854505 2.48579482-.51245232 5.0097396-.33946816 7.52189881.05657803.80081052.1923653 1.71602255.84301261 2.17362856.52587137.29315706 1.12910942.41313297 1.72562985.3432045l2.07641362-.04004052c.17363874-.01798296.34868612.01582107.50354444.09724128.2149965.1372818.26025893.42900563.32249476.68068894.35644158 1.55586044 1.77655007 2.67127509 3.2758678 3.1746417 1.49931774.50336661 3.11179154.52052684 4.6846607.6692488 4.96755084.4804863 9.72576298 2.32807058 14.71028722 2.80283681.79410393.17820987 1.62381417-.05563622 2.21220089-.62348819l3.03824009-2.41959178c.27149617-.25013562.58857752-.44442125.93353746-.57200752.28854462-.07132606.58667732-.09451176.88261723-.0686409 3.19100077.13156173 6.7158119.67496887 9.29011216-1.22981615 1.30025172-1.06296204 2.27212078-2.4802389 2.80061237-4.08413366.68291187-1.67706388.99384652-3.4851044.91090625-5.29678958-.18925045-2.48108129-1.33773302-4.78688718-3.19665857-6.4179243-.27487553-.25846634-.59284942-.46568128-.93919526-.61204805-.4083389-.12665675-.8348912-.18273821-1.26169002-.16588218l-10.53482877-.2059227c-5.12596931-.09724128-10.25193863-.19448256-15.37790794-.1144015-1.86495442-.02126516-3.72309477.23114052-5.5163577.74932984-1.75957667.53768706-3.4625753.49192646-4.8883416 1.85330435z"/>
      <path fill="rgb(96,97,97)" fill-rule="evenodd" d="M163.13708523 44.76530806c2.53469565 5.55419296 1.77655007 12.0121578 1.39181949 18.09259767-.6067262 9.57703628-.15698994 19.19259562 1.34089925 28.66901662-3.0835025-2.67699517-6.97607082-4.2557359-10.94784837-5.14806763-3.97177755-.89233172-8.04539554-1.08681428-12.10769794-1.29273698-.86530765-.09122855-1.73935959-.046852-2.59127367.13156172-2.2291743.57200752-3.59270476 2.86003758-4.33953473 5.07370666-.74682996 2.21366908-1.13156055 4.5760601-2.48377542 6.49228528l1.13156056-10.39337653c.17428574-.85628252.0955817-1.74548062-.22631211-2.55687359-.36560827-.61288808-.91159282-1.09488275-1.56155357-1.3785381-2.2397199-1.08601722-4.8796472-.89910143-6.9477818.49192645-.7864346-3.78096967 2.0424668-7.2702155 2.95337304-11.0225848.65064732-2.67127509.31117916-5.47983198.13012947-8.22546805-.3050961-4.21351502-.18186538-8.44755795.36775718-12.63564599.33946816-2.51111299.86564382-5.0393862 2.10470263-7.23589505 2.01983559-3.58076704 5.7200386-5.8916774 9.55037108-7.30453596 4.16414285-1.53298014 9.26182315-2.01346645 12.65084701.86945142.831697.70928932 1.6294472 1.77894337 2.73837654 2.03062668.96748428.21736285 1.69734084 0 2.6591673.53196699 1.88970614 1.01817337 3.27586782 2.88291787 4.18677406 4.8105832z"/>
      <path fill="url(#linearGradient-21)" fill-rule="evenodd" d="M163.13708523 44.76530806c2.53469565 5.55419296 1.77655007 12.0121578 1.39181949 18.09259767-.6067262 9.57703628-.15698994 19.19259562 1.34089925 28.66901662-3.0835025-2.67699517-6.97607082-4.2557359-10.94784837-5.14806763-3.97177755-.89233172-8.04539554-1.08681428-12.10769794-1.29273698-.86530765-.09122855-1.73935959-.046852-2.59127367.13156172-2.2291743.57200752-3.59270476 2.86003758-4.33953473 5.07370666-.74682996 2.21366908-1.13156055 4.5760601-2.48377542 6.49228528l1.13156056-10.39337653c.17428574-.85628252.0955817-1.74548062-.22631211-2.55687359-.36560827-.61288808-.91159282-1.09488275-1.56155357-1.3785381-2.2397199-1.08601722-4.8796472-.89910143-6.9477818.49192645-.7864346-3.78096967 2.0424668-7.2702155 2.95337304-11.0225848.65064732-2.67127509.31117916-5.47983198.13012947-8.22546805-.3050961-4.21351502-.18186538-8.44755795.36775718-12.63564599.33946816-2.51111299.86564382-5.0393862 2.10470263-7.23589505 2.01983559-3.58076704 5.7200386-5.8916774 9.55037108-7.30453596 4.16414285-1.53298014 9.26182315-2.01346645 12.65084701.86945142.831697.70928932 1.6294472 1.77894337 2.73837654 2.03062668.96748428.21736285 1.69734084 0 2.6591673.53196699 1.88970614 1.01817337 3.27586782 2.88291787 4.18677406 4.8105832z"/>
      <path fill="rgb(61,128,252)" fill-rule="evenodd" d="M144.39278464 31.19156975l-5.36359703-4.25001583c-.60505043-.64522886-1.54043341-.84754944-2.35364596-.50908669-5.38622824 1.37853811-10.6196958 3.76380944-14.64805138 7.63058024-5.65780278 5.43979146-8.43578394 13.26485425-10.27456985 20.94691517-.29420574 1.2412563-.56578027 2.57975389-.10749825 3.76380944.40448674.84120654.98338562 1.58450008 1.69734083 2.17934863l4.38479716 4.2557359c.33216114.2676765.57990205.62747529.71288315 1.0353336.04791785.47117203-.06812412.94449425-.32815257 1.3384976-.8260392 1.5615805-1.96325756 2.93439854-2.82890138 4.4616586-.86564383 1.52726007-1.52760675 3.31764359-1.2164276 5.0622665.43446745 2.1752745 2.2182236 3.8117689 4.40177056 4.03837305 1.51629114.12584166 2.99297767-.46904616 4.38479715-1.09825442 10.16297772-4.63757868 18.99811224-11.80276671 25.6807668-20.8267936 3.58704696-4.86206387 6.50081539-10.20461405 9.24484973-15.60436498 1.58984258-3.13460118 3.14008055-6.32640311 4.03401338-9.72412774.6550179-2.16826053.7792801-4.46493168.36209938-6.69248792-.06406372-.40103286-.23857724-.77570795-.50354445-1.0810942-.3805989-.30517748-.8495779-.47594853-1.33524145-.48620639-4.39642894-.48224903-8.77880954 1.02533267-11.97191067 4.1184541-.62435428.72226729-1.4610779 1.22341242-2.38759278 1.43001879-.45828202.09724128-1.2164276.28600376-1.58418477.01144015z"/>
      <path fill="url(#linearGradient-24)" fill-rule="evenodd" d="M143.45924718 30.24775735l-5.36359703-4.25001583c-.30888433-.28354628-.6759801-.4945079-1.07498253-.61776812-.4306002-.06649498-.87064595-.02925757-1.28432123.10868143-5.38057044 1.37281804-10.6196958 3.75808937-14.64239358 7.62486017-5.65780278 5.44551153-8.43578394 13.27057433-10.27456984 20.95263524-.29420575 1.2412563-.56578028 2.57403382-.10749826 3.76380945.40257563.84079168.98183991 1.58260226 1.69734084 2.17362855l4.38479715 4.2557359c.33439048.26555666.58264235.62609751.71288315 1.0353336.05350512.47075125-.060846.94535955-.32249476 1.33849759-.8260392 1.56158051-1.96325756 2.94011862-2.82890139 4.46737868-.86564382 1.52726007-1.52760675 3.31192351-1.2164276 5.05654643.43330874 2.1747137 2.21383778 3.8126665 4.39611276 4.04409313 1.52194895.12584165 2.99863547-.46904617 4.39045496-1.09825443 10.16234724-4.6360419 18.99599504-11.8016029 25.675109-20.8267936 3.59270475-4.86778394 6.50647318-10.20461405 9.25050753-15.60436498 1.58984258-3.13460118 3.14008054-6.3264031 4.02835558-9.72412774.65521385-2.1662646.7794848-4.46113464.36209937-6.68676784-.06184997-.40060795-.23444772-.77538086-.49788664-1.0810942-.38282939-.30582414-.85316807-.47837405-1.34089926-.49192647-4.38575685-.45610947-8.74837269 1.05801957-11.93230605 4.1413344-.63796363.73028735-1.49407704 1.2303303-2.438513 1.42429872-.45262422.0686409-1.2107698.28600375-1.57286917-.00572008z"/>
      <path fill="rgb(61,128,252)" fill-rule="evenodd" d="M113.47855027 107.01116576c-.29420574 19.0535703-.70156754 38.18150157-3.64362499 57.00054879-1.233401 7.91086392-2.91376843 15.98761002-1.41445069 23.84699326.39423447 4.11299125 3.12773185 7.6144247 6.99304423 8.95763767 3.10850163 1.3387312 6.3555945 2.3210865 9.68050055 2.92867848 4.6959763.96097262 9.5673445 1.57874074 14.257663.57200751 9.73707857-2.0706672 16.87722567-10.74230112 20.86597663-19.95734217.83735481-1.9333854 2.34233035-4.33009688 4.34519253-3.729489 2.4498286.73216963 2.0424668 5.05082636 4.42440177 5.98891868 2.37061937-5.86307702-.91656405-12.3782426-1.233401-18.70464571-.35644158-7.08145303 3.0495557-13.72818034 6.00858655-20.1575448 2.95903085-6.42936446 5.61254035-13.6480993 3.70020301-20.47214894-.831697-2.98015914-2.48943322-5.65143424-3.4795487-8.5801127-1.4201085-4.17565486-1.44273971-8.71167445-2.6365361-12.96169028-2.30838353-8.24834835-9.00156422-14.80355447-16.80367424-18.16695865-7.43435285-3.20896216-19.31573868-5.36543048-27.28758279-2.739916-11.93796386 3.95257193-13.60135787 14.94655635-13.77674976 26.17506386z"/>
      <path fill="url(#linearGradient-27)" fill-rule="evenodd" d="M113.47855027 107.01116576c-.29420574 19.0535703-.70156754 38.18150157-3.64362499 57.00054879-1.233401 7.91086392-2.91376843 15.98761002-1.41445069 23.84699326.39423447 4.11299125 3.12773185 7.6144247 6.99304423 8.95763767 3.10850163 1.3387312 6.3555945 2.3210865 9.68050055 2.92867848 4.6959763.96097262 9.5673445 1.57874074 14.257663.57200751 9.73707857-2.0706672 16.87722567-10.74230112 20.86597663-19.95734217.83735481-1.9333854 2.34233035-4.33009688 4.34519253-3.729489 2.4498286.73216963 2.0424668 5.05082636 4.42440177 5.98891868 2.37061937-5.86307702-.91656405-12.3782426-1.233401-18.70464571-.35644158-7.08145303 3.0495557-13.72818034 6.00858655-20.1575448 2.95903085-6.42936446 5.61254035-13.6480993 3.70020301-20.47214894-.831697-2.98015914-2.48943322-5.65143424-3.4795487-8.5801127-1.4201085-4.17565486-1.44273971-8.71167445-2.6365361-12.96169028-2.30838353-8.24834835-9.00156422-14.80355447-16.80367424-18.16695865-7.43435285-3.20896216-19.31573868-5.36543048-27.28758279-2.739916-11.93796386 3.95257193-13.60135787 14.94655635-13.77674976 26.17506386z"/>
      <path fill="rgb(61,128,252)" fill-rule="evenodd" d="M152.95304024 84.55987082c-3.0608713-.52624691-6.57436683-.78937037-8.88840816 1.30417714-1.00117225.98907967-1.73711738 2.21931328-2.13864945 3.57504696-1.73694545 5.02794605-1.0297201 10.75374127 1.4201085 15.44420288 2.4498286 4.69046162 6.54042 8.44855099 11.20244949 10.9310636 6.46503192 3.48387725 13.96791112 4.45444165 21.09228875 2.72847584 5.21649416-1.3327775 9.9916797-4.17565485 15.2760675-5.2681892 6.92515059-1.44145894 14.74423402.10296135 20.65098012-3.83245035.64101194-.39042519 1.19721656-.90799902 1.635105-1.52153999.43963834-.71770059.70164238-1.53198523.76380338-2.37383118.47525543-4.38729763-2.07641362-8.58011271-5.0920225-11.73187412-.77906254-.90986748-1.74427057-1.63783782-2.82890139-2.13358802-.98591941-.33073653-2.0229789-.47802675-3.0608713-.43472572-6.05384897-.05720075-12.08506673.76077-18.1389157.76649007-4.33953473 0-8.74130529-.41756548-12.8601857-1.8418642-1.69734084-.5720075-3.19665857-1.46433923-4.83742138-2.08782742-2.06257896-.73198343-4.16280481-1.35065499-6.29147669-1.85330435 0 0-3.94348853-.99529307-7.90395047-1.67026194z"/>
      <path fill="url(#linearGradient-30)" fill-rule="evenodd" d="M152.95304024 84.55987082c-3.0608713-.52624691-6.57436683-.78937037-8.88840816 1.30417714-1.00117225.98907967-1.73711738 2.21931328-2.13864945 3.57504696-1.73694545 5.02794605-1.0297201 10.75374127 1.4201085 15.44420288 2.4498286 4.69046162 6.54042 8.44855099 11.20244949 10.9310636 6.46503192 3.48387725 13.96791112 4.45444165 21.09228875 2.72847584 5.21649416-1.3327775 9.9916797-4.17565485 15.2760675-5.2681892 6.92515059-1.44145894 14.74423402.10296135 20.65098012-3.83245035.64101194-.39042519 1.19721656-.90799902 1.635105-1.52153999.43963834-.71770059.70164238-1.53198523.76380338-2.37383118.47525543-4.38729763-2.07641362-8.58011271-5.0920225-11.73187412-.77906254-.90986748-1.74427057-1.63783782-2.82890139-2.13358802-.98591941-.33073653-2.0229789-.47802675-3.0608713-.43472572-6.05384897-.05720075-12.08506673.76077-18.1389157.76649007-4.33953473 0-8.74130529-.41756548-12.8601857-1.8418642-1.69734084-.5720075-3.19665857-1.46433923-4.83742138-2.08782742-2.06257896-.73198343-4.16280481-1.35065499-6.29147669-1.85330435 0 0-3.94348853-.99529307-7.90395047-1.67026194z"/>
      <path fill="url(#linearGradient-32)" fill-rule="evenodd" d="M178.5659134 65.2832176c-.04956388.25361903-.00951825.51678056.11315606.74360976.16724904.19891305.40067849.32911921.65630512.36608481 1.69734083.41184541 3.43428628-.3203242 5.14294272-.70356924 2.57430027-.57200751 5.25044098-.34892458 7.87566147-.12584165.50559171-.02753482.96773803.28784739 1.13156055.77221014 2.98731987 5.25102898 6.04819117 10.75946134 6.35371252 16.81130084-.00799483 1.36115937.06948428 2.72145918.23196991 4.0726935.75814557 4.21569538 4.35085034 7.1786943 7.10620029 10.42769699 1.34089926 1.58446081 2.54035345 3.31764358 4.15282724 4.62754079 1.61247379 1.3098972 3.76809664 2.1393081 5.74266981 1.55014036 2.21220089-.65208856 3.63796719-2.9458387 3.98875096-5.2453089.35078377-2.29947021-.16407628-4.63898094-.67893633-6.90985078-1.04669352-4.65042109-2.11036044-9.34660278-4.13585383-13.65381936-2.89113722-6.14908078-7.58145572-11.2056272-11.44573502-16.77126032-2.66644387-3.83685936-4.95015815-7.9314753-6.81765234-12.22380057-.4073618-.9438124-.83735481-1.94482555-1.69734083-2.52827322-1.86707492-1.29845705-4.45269079.20020263-6.66489167-.30888405-1.53326456-.35464466-2.68179852-1.62450134-4.0849336-2.34523081-1.4031351-.72072947-3.59270477-.52052684-3.96046195 1.01817337-1.99086293-.18416323-3.98481698.31779597-5.65780278 1.42429871-.2263121.14872196-.46959763.36036474-.45828202.62920827.0113156.26884353.23762772.42900563.44130862.57200751 3.2758678 2.36811111 6.9534396 5.92027778 8.51499317 9.76416827 1.59550039 3.96401207-5.37491263 4.0040526-5.85016807 8.03670558z"/>
      <path fill="rgb(96,97,97)" fill-rule="evenodd" d="M125.46743435 72.85659708c4.71860752-2.86003757 9.50510867-5.81159634 13.22228509-9.92433037 3.71717642-4.11273403 6.18397843-9.23792135 8.09065797-14.4717901 1.38050388-3.7752496 2.50074883-7.7106613 2.51206443-11.73187412 0-1.1039745.06789363-.49764654-.36775718-1.51009984-.96748427-2.28803006-4.39611276-4.51885936-6.62528705-5.51987251 1.89536393 3.72376891 1.10327154 7.56765941-.8090658 11.28570825-2.68179851 5.18238808-5.85582587 10.1474133-10.03694212 14.19150643-1.69734083 1.65882179-13.01294638 10.58785909-13.01294638 10.58785909 0 .4804863 4.72992312 5.17094793 7.02699104 7.09289317z"/>
      <path fill="url(#linearGradient-35)" fill-rule="evenodd" d="M125.46743435 72.85659708c4.71860752-2.86003757 9.50510867-5.81159634 13.22228509-9.92433037 3.71717642-4.11273403 6.18397843-9.23792135 8.09065797-14.4717901 1.38050388-3.7752496 2.50074883-7.7106613 2.51206443-11.73187412 0-1.1039745.06789363-.49764654-.36775718-1.51009984-.96748427-2.28803006-4.39611276-4.51885936-6.62528705-5.51987251 1.89536393 3.72376891 1.10327154 7.56765941-.8090658 11.28570825-2.68179851 5.18238808-5.85582587 10.1474133-10.03694212 14.19150643-1.69734083 1.65882179-13.01294638 10.58785909-13.01294638 10.58785909 0 .4804863 4.72992312 5.17094793 7.02699104 7.09289317z"/>
      <path fill="url(#linearGradient-37)" fill-rule="evenodd" d="M133.309149 35.59030753c-3.82467468 9.19788083-9.5843179 18.12119805-18.3369388 22.73157862-.84867041.44616586-1.8444437.8522912-2.72706093.4804863-.85154463-.44437063-1.3557463-1.3623738-1.27866343-2.32807057.09141145-.94394208.36840516-1.85991419.8147236-2.6941554l3.39468166-7.51045866c1.94062636-4.27289613 3.91519952-8.58011271 6.94212401-12.1723199 2.38759277-2.81999704 5.55030452-5.14806763 9.1543249-6.08043987 1.69734082-.42900564 3.01560887-.88661165 3.43428628 1.06965405.46393982 2.08782742-.6167005 4.62754079-1.39747729 6.50372543z"/>
      <path fill="rgb(61,128,252)" fill-rule="evenodd" d="M124.09824608 100.78200393c-.37769263.4449687-.60556495.99988495-.65064732 1.58446081 0 .78937037.62801611 1.41285856 1.17116518 1.98486607 6.3310813 6.73252845 6.28016108 17.08586445 6.78936333 26.36382633.51486005 9.81564895 2.0537824 19.54549676 3.58704696 29.25246428.44696642 2.81999704.93919526 5.76011567 2.61956268 8.05958587 3.16271175 4.34153704 9.32405898 4.95358508 13.6635937 8.09390633 1.205112.86945142 2.33101475 2.0477869 2.58561587 3.52928636.25460113 1.48149946-.44696642 3.07168035-1.13156055 4.47309876l-7.24764536 14.60907192c-.88250563 2.00092201-2.02405406 3.87443186-3.39468166 5.57135318-1.46000485 1.54492898-3.13773583 2.86333654-4.97886644 3.9125314-9.54471329 5.93171792-20.54348188 10.06733225-31.73461577 9.54680541-11.1911339-.52052683-22.50673945-6.29208265-27.80244284-16.290774-3.79638567-7.15009393-4.24335208-15.62152521-3.81901688-23.72687169.42433521-8.10534648 1.6407628-16.2221331.83735481-24.2988792-.44130861-4.43305824-1.49365993-8.8375161-1.30129463-13.29345463.25460112-6.1204804 2.82890138-11.86915592 5.34096582-17.44622918 1.57852697-3.48352577 3.17968516-7.00709205 5.57293573-9.97581105 2.6648251-3.30048336 6.28016108-5.88595732 8.18684062-9.68408722.6280161-1.25269645 1.13156055-2.71131562 2.37061936-3.36340418.81034938-.34595114 1.692858-.4835184 2.56864246-.40040526 4.40742836.06292083 9.3919526-.05720075 12.37927247-3.3348038 2.26312111-2.511113 2.71008753-6.16624101 3.91519952-9.35804294 1.205112-3.19180193 4.18111625-6.39504401 7.44566846-5.50843236-1.07619132 4.99795308-1.48718783 10.1188538-1.2220854 15.22684002 5.2957034-3.77524959 9.47116184-8.99195812 14.83475887-12.66996643 3.49086432-2.39671149 8.5376244-4.61038057 12.87150132-3.8438905 6.04253336 1.06965405 2.50074883 4.11273403-1.04669351 5.51987251-8.49801977 3.35196404-17.08090658 7.74498174-22.4105568 15.46708319z"/>
      <path fill="url(#linearGradient-40)" fill-rule="evenodd" d="M124.09824608 100.78200393c-.37769263.4449687-.60556495.99988495-.65064732 1.58446081 0 .78937037.62801611 1.41285856 1.17116518 1.98486607 6.3310813 6.73252845 6.28016108 17.08586445 6.78936333 26.36382633.51486005 9.81564895 2.0537824 19.54549676 3.58704696 29.25246428.44696642 2.81999704.93919526 5.76011567 2.61956268 8.05958587 3.16271175 4.34153704 9.32405898 4.95358508 13.6635937 8.09390633 1.205112.86945142 2.33101475 2.0477869 2.58561587 3.52928636.25460113 1.48149946-.44696642 3.07168035-1.13156055 4.47309876l-7.24764536 14.60907192c-.88250563 2.00092201-2.02405406 3.87443186-3.39468166 5.57135318-1.46000485 1.54492898-3.13773583 2.86333654-4.97886644 3.9125314-9.54471329 5.93171792-20.54348188 10.06733225-31.73461577 9.54680541-11.1911339-.52052683-22.50673945-6.29208265-27.80244284-16.290774-3.79638567-7.15009393-4.24335208-15.62152521-3.81901688-23.72687169.42433521-8.10534648 1.6407628-16.2221331.83735481-24.2988792-.44130861-4.43305824-1.49365993-8.8375161-1.30129463-13.29345463.25460112-6.1204804 2.82890138-11.86915592 5.34096582-17.44622918 1.57852697-3.48352577 3.17968516-7.00709205 5.57293573-9.97581105 2.6648251-3.30048336 6.28016108-5.88595732 8.18684062-9.68408722.6280161-1.25269645 1.13156055-2.71131562 2.37061936-3.36340418.81034938-.34595114 1.692858-.4835184 2.56864246-.40040526 4.40742836.06292083 9.3919526-.05720075 12.37927247-3.3348038 2.26312111-2.511113 2.71008753-6.16624101 3.91519952-9.35804294 1.205112-3.19180193 4.18111625-6.39504401 7.44566846-5.50843236-1.07619132 4.99795308-1.48718783 10.1188538-1.2220854 15.22684002 5.2957034-3.77524959 9.47116184-8.99195812 14.83475887-12.66996643 3.49086432-2.39671149 8.5376244-4.61038057 12.87150132-3.8438905 6.04253336 1.06965405 2.50074883 4.11273403-1.04669351 5.51987251-8.49801977 3.35196404-17.08090658 7.74498174-22.4105568 15.46708319z"/>
      <path fill="url(#linearGradient-42)" fill-rule="evenodd" d="M110.0668952 134.12432193c.6053849-4.1413344 1.8501015-8.145387 3.09481812-12.13799945l3.55875794-11.44015029c.29420575-.9438124.66196293-1.979146 1.53892236-2.41959178 1.28432123-.65208857 2.77232336.37752496 3.73980763 1.45289908 6.98738643 7.72210145 6.78936333 19.33957406 7.64369155 29.74439074.96748428 11.97211727 4.41308617 24.71072462 13.79372317 32.08390147 3.8642793 3.04307998 9.12037807 5.95459823 9.09774686 10.9081833 0 2.40815163-1.36918827 4.57606011-2.68179851 6.58380649l-6.26884548 9.60972624c-3.33810364 5.11946725-7.40606383 10.72514089-13.42030818 11.52023133-1.80887117.31169793-3.66680028-.09842834-5.18254735-1.14401503-1.81049688-1.38997826-2.50640663-3.77524959-3.10047592-5.99463875-5.83885246-21.82780674-14.65936699-45.78348143-11.8134922-68.76674335z"/>
      <path fill="rgb(61,128,252)" fill-rule="evenodd" d="M111.7020002 203.28575047c.33224834.85058244.843898 1.6177201 1.49931774 2.24798953 1.53326455 1.28129683 3.81335907.89233172 5.708723.28600376 3.49568253-1.21240055 6.89937016-2.68062463 10.184045-4.39301771 2.32787693-1.0685165 4.56463134-2.329299 6.68752287-3.76952952.94091883-.6214059 1.74581499-1.43126754 2.36496156-2.37955126.61687296-.96658144.7468705-2.17063472.35078378-3.24900268-.26915498-.53583193-.61413658-1.02913209-1.0240623-1.46433924-3.48242463-4.13783069-6.01550131-9.00384412-7.41737945-14.24870717-.67893633-2.54543344-1.08629813-5.176668-2.13864945-7.58481964-.11196822-.31456342-.30777373-.59170831-.56578027-.80081052-.46501127-.2351232-1.00529877-.26615924-1.49365994-.08580113-4.23769427.93237225-8.577229 1.91622517-12.20388058 4.31293666-2.07563807 1.47428597-4.01137377 3.14026045-5.78227444 4.97646537-1.2220854 1.18977563-2.46680201 2.36239103-2.50640663 4.17565485-.09618265 4.5131393 1.73128765 9.72412775 3.13442274 13.93982313.90869631 2.74079408 1.97802788 5.42444615 3.20231637 8.03670557z"/>
      <path fill="url(#linearGradient-45)" fill-rule="evenodd" d="M112.5336972 202.54786078c.33152557.85263186.84321785 1.62178557 1.49931774 2.2537096 1.53326456 1.28129683 3.81335907.89233172 5.708723.28028368 3.49528132-1.21345588 6.89889423-2.68164772 10.184045-4.3930177 2.32787694-1.0685165 4.56463135-2.329299 6.68752288-3.76952952.9406601-.61935905 1.74558577-1.42730353 2.36496156-2.37383119.61687296-.96658143.7468705-2.17063472.35078377-3.24900268-.2676959-.53844652-.61279402-1.03384089-1.0240623-1.4700593-3.4835181-4.1370828-6.0167302-9.00335633-7.41737944-14.24870719-.67893633-2.53971336-1.09195593-5.176668-2.13864945-7.58481964-.11196822-.3145634-.30777374-.5917083-.56578027-.80081052-.4665337-.22927688-1.00444115-.2601762-1.49365994-.08580112-4.23769428.93809232-8.577229 1.91622517-12.20388058 4.31865673-2.07694813 1.47257453-4.01283571 3.13867974-5.78227444 4.97646537-1.2220854 1.18405556-2.46680201 2.36239104-2.50640663 4.16993478-.09618265 4.51313929 1.73128765 9.72412774 3.13442274 13.93982312.90770994 2.7411616 1.97706497 5.42487254 3.20231637 8.03670558z"/>
      <path fill="rgb(61,128,252)" fill-rule="evenodd" d="M110.21399807 115.87728223c-.99577329 3.28332313-1.6124738 6.76112881-3.4569175 9.64404668-1.4201085 2.21366908-3.4738909 3.91825148-5.42017506 5.67431455-3.6676005 3.3082122-7.05522012 6.92062629-10.12746696 10.79950186-.92222186 1.14401503-1.85010151 2.38527134-3.11744933 3.16320156-1.22544973.66799915-2.57335957 1.07487603-3.96046195 1.1954957-3.40584846.47582675-6.86113948.46234645-10.26325423-.04004052-1.0240623-.14872196-2.12167604-.38896511-2.82890139-1.14401503-.52551035-.70927422-.84312348-1.55367177-.91656405-2.43675201-2.50122898-16.02764995 2.82883526-32.2876292 14.30292542-43.63273319 1.09084038-1.15985228 2.38845372-2.10107906 3.82467467-2.77423644 1.40053517-.49459606 2.86796192-.76854673 4.35085034-.81225067 6.69318068-.53196699 13.74280294-1.00673322 19.80230971 1.89334487 1.233401.57200752 4.20940527 1.83042405 4.80913236 3.1517614.72985656 1.60162105-.92787965 2.98015915-1.77655007 4.24429576-2.27611946 3.4080449-4.03623624 7.14053845-5.22215196 11.07406548z"/>
      <path fill="url(#linearGradient-48)" fill-rule="evenodd" d="M110.21399807 115.87728223c-.99577329 3.28332313-1.6124738 6.76112881-3.4569175 9.64404668-1.4201085 2.21366908-3.4738909 3.91825148-5.42017506 5.67431455-3.6676005 3.3082122-7.05522012 6.92062629-10.12746696 10.79950186-.92222186 1.14401503-1.85010151 2.38527134-3.11744933 3.16320156-1.22544973.66799915-2.57335957 1.07487603-3.96046195 1.1954957-3.40584846.47582675-6.86113948.46234645-10.26325423-.04004052-1.0240623-.14872196-2.12167604-.38896511-2.82890139-1.14401503-.52551035-.70927422-.84312348-1.55367177-.91656405-2.43675201-2.50122898-16.02764995 2.82883526-32.2876292 14.30292542-43.63273319 1.09084038-1.15985228 2.38845372-2.10107906 3.82467467-2.77423644 1.40053517-.49459606 2.86796192-.76854673 4.35085034-.81225067 6.69318068-.53196699 13.74280294-1.00673322 19.80230971 1.89334487 1.233401.57200752 4.20940527 1.83042405 4.80913236 3.1517614.72985656 1.60162105-.92787965 2.98015915-1.77655007 4.24429576-2.27611946 3.4080449-4.03623624 7.14053845-5.22215196 11.07406548z"/>
      <path fill="rgb(61,128,252)" fill-rule="evenodd" d="M112.43751456 158.66344429c-4.33387693 1.58446081-8.25473425 4.12417417-12.13032915 6.63528716-.85998602.57200752-1.76523447 1.14401503-2.18956967 2.11070773-.72419876 1.61878126.2263121 3.43204508 1.0297201 5.02222597 2.0629648 4.08418498 3.22136908 8.57360944 3.39468167 13.15617283 3.12310713-.9666927 6.38200153 1.52726006 9.61826471 1.14401503 1.38152788-.25826475 2.70226733-.77840138 3.89256831-1.53298014l10.15009818-5.58279334c1.81743875-.77770657 3.2335151-2.28395622 3.90954172-4.15849463 1.0297201-2.12786795 2.08207142-4.45021846 1.60115819-6.76684889-.25022699-.95452362-.63109294-1.86903623-1.13156056-2.7170357-1.07498253-2.07638727-4.31124571-11.16558667-6.5460778-11.48591088-1.08064034-.1601621-4.31690353 1.87618465-5.4824109 2.25370961-2.01983559.6692488-4.073618 1.18405555-6.1160848 1.92194525z"/>
      <path fill="url(#linearGradient-51)" fill-rule="evenodd" d="M111.707658 158.97804842c-4.33387692 1.59018089-8.24907644 4.12417418-12.13032915 6.64100724-.85998602.57200751-1.76523446 1.14401503-2.18956967 2.10498765-.72419876 1.61878127.23196991 3.43204509 1.0297201 5.02222598 2.06552585 4.08319908 3.22408013 8.57320486 3.39468167 13.15617282 3.12876493-.9666927 6.38200153 1.53298014 9.61826472 1.14401503 1.3817907-.25733003 2.70269913-.7775332 3.8925683-1.53298014l10.13878258-5.57707326c1.81410327-.78073112 3.22737802-2.28617943 3.90388392-4.15849463 1.0297201-2.12786795 2.08207142-4.45021846 1.60681598-6.7668489-.25270298-.95366768-.6334288-1.86784381-1.13156055-2.71703568-1.07498253-2.0706672-4.31690352-11.16558668-6.55173562-11.48591089-1.08064033-.15444203-4.31690351 1.87618465-5.48241089 2.2537096-2.00286218.66352872-4.0849336 1.17833549-6.09911139 1.91622518z"/>
      <path fill="rgb(61,128,252)" fill-rule="evenodd" d="M102.70609379 195.54076873c1.0035503 2.9200637 1.72545083 5.93139724 2.15562285 8.99195812.14710288 1.32133736.15276068 2.77995652-.6280161 3.84961057-.78077679 1.06965405-2.18391188 1.49293961-3.49652212 1.49293961-1.3115794-.08260986-2.615966-.25653107-3.90388391-.52052683-2.89113722-.38324504-5.8954305.09724127-8.68472727-.76077-.93438599-.30638867-1.84261924-.68898437-2.71574533-1.14401503l-7.47961527-3.65512801c-.3349711-.1444092-.64750433-.33707573-.92787965-.57200752-.33239109-.34070271-.59063377-.7479174-.75814557-1.1954957-1.65518415-3.80854785-2.08274602-8.04717394-1.2220854-12.11511915.8203814-3.84961057 2.77232336-7.39605716 3.44560189-11.2742681.38473059-2.23654939.36775718-4.62182072 1.48234432-6.5838065.27597827-.53660834.6929636-.98589235 1.205112-1.29845705.63408915-.27835591 1.32411064-.40181046 2.01417778-.36036474 2.16128066-.03432045.65064732-2.86003757 2.8289014-2.89435802 1.48234432 0 7.19106732.16588218 8.41881052 1.14401503 1.2277432.97813285 1.4257663 5.94315807 1.93496855 7.43609768 0 0 2.09904483 6.1433607 4.0905914 12.32676194 0 0 1.13156056 3.57504696 2.2404899 7.1329337z"/>
      <path fill="url(#linearGradient-54)" fill-rule="evenodd" d="M102.70609379 195.54076873c1.0035503 2.9200637 1.72545083 5.93139724 2.15562285 8.99195812.14710288 1.32133736.15276068 2.77995652-.6280161 3.84961057-.78077679 1.06965405-2.18391188 1.49293961-3.49652212 1.49293961-1.3115794-.08260986-2.615966-.25653107-3.90388391-.52052683-2.89113722-.38324504-5.8954305.09724127-8.68472727-.76077-.93438599-.30638867-1.84261924-.68898437-2.71574533-1.14401503l-7.47961527-3.65512801c-.3349711-.1444092-.64750433-.33707573-.92787965-.57200752-.33239109-.34070271-.59063377-.7479174-.75814557-1.1954957-1.65518415-3.80854785-2.08274602-8.04717394-1.2220854-12.11511915.8203814-3.84961057 2.77232336-7.39605716 3.44560189-11.2742681.38473059-2.23654939.36775718-4.62182072 1.48234432-6.5838065.27597827-.53660834.6929636-.98589235 1.205112-1.29845705.63408915-.27835591 1.32411064-.40181046 2.01417778-.36036474 2.16128066-.03432045.65064732-2.86003757 2.8289014-2.89435802 1.48234432 0 7.19106732.16588218 8.41881052 1.14401503 1.2277432.97813285 1.4257663 5.94315807 1.93496855 7.43609768 0 0 2.09904483 6.1433607 4.0905914 12.32676194 0 0 1.13156056 3.57504696 2.2404899 7.1329337z"/>
      <path fill="rgb(61,128,252)" fill-rule="evenodd" d="M201.8081672 88.2721996c-1.2220854.90949194-2.30272572 2.09926757-3.75112324 2.5740338.65630513 2.25370961 3.47954871 3.21468223 4.36216594 5.38259071.5997271 1.47577939.16973409 3.14032126-.07355143 4.71334192-.6110427 3.958292.02828901 8.0081052.66762073 11.93779682.15841847.97813285.4186774 2.10498765 1.30695244 2.52827321.3263309.13107516.67303132.20272768 1.0240623.21164278 1.90102173.1372818 3.90954172 0 5.54464672-.96097262 2.21220088-1.3327775 3.4512597-4.08413365 5.86714148-4.97646537.74117216-.27456361 1.6294472-.40612534 2.0594402-1.07537413.29952872-.62778824.3261904-1.35350324.07355144-2.0020263-.88261723-3.43204508-2.60258927-6.52088566-4.33387692-9.57540579-.93947017-1.77464565-2.0500185-3.45113897-3.31547243-5.00506575-1.42550605-1.55682893-3.0218792-2.94432143-4.75821213-4.13561432-1.55589577-1.14401503-3.13442274-.76077-4.6733451.38324503z"/>
      <path fill="url(#linearGradient-57)" fill-rule="evenodd" d="M201.8081672 88.2721996c-1.2220854.90949194-2.30272572 2.09926757-3.75112324 2.5740338.65630513 2.25370961 3.47954871 3.21468223 4.36216594 5.38259071.5997271 1.47577939.16973409 3.14032126-.07355143 4.71334192-.6110427 3.958292.02828901 8.0081052.66762073 11.93779682.15841847.97813285.4186774 2.10498765 1.30695244 2.52827321.3263309.13107516.67303132.20272768 1.0240623.21164278 1.90102173.1372818 3.90954172 0 5.54464672-.96097262 2.21220088-1.3327775 3.4512597-4.08413365 5.86714148-4.97646537.74117216-.27456361 1.6294472-.40612534 2.0594402-1.07537413.29952872-.62778824.3261904-1.35350324.07355144-2.0020263-.88261723-3.43204508-2.60258927-6.52088566-4.33387692-9.57540579-.93947017-1.77464565-2.0500185-3.45113897-3.31547243-5.00506575-1.42550605-1.55682893-3.0218792-2.94432143-4.75821213-4.13561432-1.55589577-1.14401503-3.13442274-.76077-4.6733451.38324503z"/>
      <path fill="rgb(61,128,252)" fill-rule="evenodd" d="M87.15845176 172.99223252c-.09618265 2.82571712.46959763 5.62283386.87695943 8.4199506.8090658 5.50843237.91656405 11.54883172-2.16128066 16.16493236-.07555189.19972627-.23750538.35340839-.43944258.41699915-.2019372.06359076-.421565.03006998-.59593533-.09095487 0 0-7.07791127-2.84287734-13.92385263-6.32068303-.51438464-.201853-.96165752-.54694978-1.28997903-.99529308-.24645152-.5191048-.34069213-1.0987118-.27157454-1.67026194l.47525544-16.11917175c.00169548-1.0283047.09447685-2.05438988.27723233-3.06596027.28691287-1.35272543.8665707-2.62442746 1.69734084-3.72376892.4538364-.67513074 1.08741186-1.20660784 1.8274703-1.53298014.68897499-.19937396 1.4110549-.25388267 2.12167603-.1601621 4.82044797.28600375 9.61826472.64636849 14.4500283 1.00673322.5484993.01055545 1.0914703.11299982 1.60681598.30316399 1.32958365.5720075 1.88970613 2.1393081 2.30838353 3.53500643-.45828202-1.51581991-3.54744234-1.29273698-4.62808267-.96097262-1.77089227.54912721-2.27443671 3.1746417-2.33101474 4.79342297z"/>
      <path fill="rgb(61,128,252)" fill-rule="evenodd" d="M89.54038673 123.28477953c-2.6591673 3.76380945-4.93926183 7.88226355-6.07082238 12.40684299-1.48234433 5.86307702-.95051087 12.04647825-.83735481 18.1097579.29687303 18.75470564-3.49096724 37.34579942-11.09495124 54.45511535-1.59550039 3.55788674-3.43428629 7.16153408-6.512131 9.51248496-1.2164276-1.36709796-2.4611442-2.72847584-3.70020301-4.0955738-.2067115-.20039738-.37881931-.43433354-.50920225-.6921291-.0961047-.15195697-.16326587-.3207379-.1980231-.49764653-.0169621-.56346623.1724223-1.11342994.53183346-1.54442029 1.65773621-2.50539291 3.92085732-4.57606011 5.5106999-7.11577348 1.75391886-2.82571712 2.57430027-6.13764062 3.30415682-9.38092323 1.8387859-8.12822678 3.14573835-16.37085506 4.4696642-24.59632311.6223583-3.89537117 1.2447166-7.79074234 1.59550038-11.73187412.75248777-8.3055491.35644157-16.70261941 1.69734083-24.92236739 1.13156056-7.13865378 3.80770127-14.46034996 9.09774687-19.56837706 1.73128764-1.65310172 4.40742836-2.95155877 6.22358305-1.74462292.7673182.54527145 1.30436536 1.36174986 1.50497554 2.28803006 1.0127467 3.31764358-3.27021 6.69820799-5.01281326 9.11779977z"/>
      <path fill="url(#linearGradient-61)" fill-rule="evenodd" d="M88.40882617 121.91768158c-2.67614071 3.76380944-4.96189303 7.88226354-6.08779578 12.38396268-1.45971312 5.88595732-.95051087 12.06935855-.84301262 18.1326382.31360683 18.75628948-3.47497657 37.3510306-11.09495124 54.45511535-1.57286917 3.55788674-3.43428629 7.16153408-6.48949978 9.51248496-1.04103572-1.14401503-2.08207143-2.28803006-3.07784471-3.43204509-.0961047-.15195697-.16326587-.3207379-.1980231-.49764653-.0169621-.56346623.1724223-1.11342994.53183346-1.5444203 1.65773621-2.5053929 3.92085732-4.5760601 5.5106999-7.11577347 1.75391886-2.82571712 2.57430027-6.13764062 3.30415682-9.38092323 1.8387859-8.12822678 3.14573835-16.37085506 4.4696642-24.59632311.6223583-3.89537117 1.2447166-7.79074234 1.59550038-11.73187412.75248777-8.3055491.35644157-16.70261941 1.69734083-24.92236739 1.13156056-7.13865378 3.80770127-14.46034996 9.09774687-19.56837706 1.73128764-1.65310172 4.40742836-2.95155877 6.22358305-1.74462292.1391132.2965858.25819953.60235608.35644157.91521202 1.0070889 3.34052389-3.2871834 6.7210883-4.99583985 9.13496z"/>
      <path fill="rgb(61,128,252)" fill-rule="evenodd" d="M274.72027157 172.75198936c-2.19522747 0-4.4809798.17160226-6.48384198-.73216962-1.69734083-.75504991-2.93639964-2.16790848-4.2716411-3.43204508-5.03397415-4.71862111-11.48074966-7.60510265-18.31996538-8.20258775-5.3126768-.45188594-10.63666922.51480676-15.97197724.74360976-10.74291818.46029654-21.40688792-2.04717631-30.84634073-7.25305528 1.97141603 15.1221553 10.8635865 28.42606108 24.00605718 35.91635182 3.21363198 1.7961036 6.78936333 3.36340418 8.82051453 6.47512506 3.76809664 5.82875657.401704 14.60335184 4.78084334 19.9745024 1.65207841 2.0249066 4.12453823 3.1517614 6.1160848 4.8334635 5.0920225 4.33009687 6.38765934 11.60603245 9.3693214 17.62927158 5.7256964 11.55455179 17.66931807 18.3385609 28.9340034 24.436161 4.101907 2.22510924 8.28868106 4.47309877 12.8715013 5.30250966 4.36782375.78937037 8.89406597.228803 13.17136487-.96097262 17.14880021-4.75338245 31.4064632-22.54853621 27.64402436-40.12060705-2.868506-13.38497583-15.08936-23.02902252-22.97633707-33.53680056-9.04116884-12.06935854-21.26202283-21.1242375-36.84361168-21.07275682z"/>
      <path fill="url(#linearGradient-64)" fill-rule="evenodd" d="M274.72027157 172.75198936c-2.19522747 0-4.4809798.17160226-6.48384198-.73216962-1.69734083-.75504991-2.93639964-2.16790848-4.2716411-3.43204508-5.03397415-4.71862111-11.48074966-7.60510265-18.31996538-8.20258775-5.3126768-.45188594-10.63666922.51480676-15.97197724.74360976-10.74291818.46029654-21.40688792-2.04717631-30.84634073-7.25305528 1.97141603 15.1221553 10.8635865 28.42606108 24.00605718 35.91635182 3.21363198 1.7961036 6.78936333 3.36340418 8.82051453 6.47512506 3.76809664 5.82875657.401704 14.60335184 4.78084334 19.9745024 1.65207841 2.0249066 4.12453823 3.1517614 6.1160848 4.8334635 5.0920225 4.33009687 6.38765934 11.60603245 9.3693214 17.62927158 5.7256964 11.55455179 17.66931807 18.3385609 28.9340034 24.436161 4.101907 2.22510924 8.28868106 4.47309877 12.8715013 5.30250966 4.36782375.78937037 8.89406597.228803 13.17136487-.96097262 17.14880021-4.75338245 31.4064632-22.54853621 27.64402436-40.12060705-2.868506-13.38497583-15.08936-23.02902252-22.97633707-33.53680056-9.04116884-12.06935854-21.26202283-21.1242375-36.84361168-21.07275682z"/>
      <path fill="rgb(61,128,252)" fill-rule="evenodd" d="M47.2822578 182.28163455c-1.81672152 7.0529564-2.36481175 14.37861436-1.6181316 21.62760411.63933172 6.20628153 2.2291743 12.45832366 1.18813859 18.61312451-.8147236 4.81630327-3.19665857 9.19788083-5.53333112 13.47649704l-10.26891204 18.76756654c-8.13026259-12.12083923-21.08097314-27.7309243-15.12330682-42.77472191 2.74969215-6.94417123 7.66632276-13.37353569 13.05820881-18.43008211 2.46680201-2.30519028 17.9352348-9.8728497 18.29733418-11.27998818z"/>
      <path fill="url(#linearGradient-67)" fill-rule="evenodd" d="M47.2822578 182.28163455c-1.81672152 7.0529564-2.36481175 14.37861436-1.6181316 21.62760411.63933172 6.20628153 2.2291743 12.45832366 1.18813859 18.61312451-.8147236 4.81630327-3.19665857 9.19788083-5.53333112 13.47649704l-10.26891204 18.76756654c-8.13026259-12.12083923-21.08097314-27.7309243-15.12330682-42.77472191 2.74969215-6.94417123 7.66632276-13.37353569 13.05820881-18.43008211 2.46680201-2.30519028 17.9352348-9.8728497 18.29733418-11.27998818z"/>
    </g>
  </g>
</svg>
