<svg xmlns="http://www.w3.org/2000/svg" width="144" height="93" viewBox="0 0 144 93">
  <g>
    <path fill="rgb(61,128,252)" fill-rule="evenodd" d="M61 9.46608422S46.2845266-1.33161857 31.57381548.13736024C16.86310437 1.60633906 2 20.41965936 2 20.41965936L6.76228913 24s24.68294455-20.31063954 38.05069013-5.2949365C58.18072484 33.72076656 61 9.46608423 61 9.46608423z"/>
    <g opacity=".2">
      <path fill="rgb(255,255,255)" fill-rule="evenodd" d="M61 9.46608422S46.2845266-1.33161857 31.57381548.13736024C16.86310437 1.60633906 2 20.41965936 2 20.41965936L6.76228913 24s24.68294455-20.31063954 38.05069013-5.2949365C58.18072484 33.72076656 61 9.46608423 61 9.46608423z"/>
    </g>
    <rect width="50" height="33" x="0" y="7" fill="rgb(255,210,0)" rx="0" ry="0"/>
    <g opacity=".45">
      <path fill="rgb(230,230,230)" fill-rule="evenodd" d="M131.60528044 77.3794935c-1.87416162-.38161423-3.47874743-1.59255063-4.36987248-3.29782157v-.04772535L104.81791478 31l-12.33790649 8.80532676 8.7255417 27.65206682c.46686543 1.47567658.18735115 3.08827863-.74825926 4.31693285-.9356104 1.22865421-2.40873576 1.91763846-3.943554 1.84440962-6.62819227-.30544223-13.6777482-.47725349-21.00190067-.47725349C37.67432699 73.14148256 7 77.5847125 7 83.06835502 7 88.55199754 37.67432699 93 75.51183606 93 113.34934513 93 144 88.55677007 144 83.08267262c0-2.12855054-4.58765594-4.09006235-12.39471956-5.70317912z"/>
    </g>
    <path fill="rgb(61,128,252)" fill-rule="evenodd" d="M60.30698527 79s.71450193 2.58907693 2.83386913 2.894588c2.1193672.30551108 2.56351705 2.58907693.61794761 3.05511078C61.81323257 85.41573263 57 82.4900757 57 82.4900757l.30414609-3.2881277L60.30698527 79z"/>
    <path fill="rgb(61,128,252)" fill-rule="evenodd" d="M19.95549005 79.58670725s-2.51233942.53825074-2.96733002 2.6570014c-.4549906 2.11875067-2.66070592 2.4025556-2.96733002.40124147C13.7142059 80.64363598 16.89419458 76 16.89419458 76L20 76.55293031l-.04450995 3.03377694z"/>
    <path fill="rgb(36,40,91)" fill-rule="evenodd" d="M20.28064305 44s-2.20057733 10.527358 5.72244147 15.03908286C33.92610332 63.5508077 58.91770266 55.42873893 55.05728816 81h5.57667674s7.20830137-21.208963-11.49190383-28.7477853l-5.67542058-6.59887963L20.28064305 44z"/>
    <rect width="2.716" height="17.375" x="89.325" y="32.865" fill="rgb(255,210,0)" rx="0" ry="0" transform="rotate(43.700016 90.68299326 41.55267067)"/>
    <g opacity=".08">
      <rect width="2.716" height="17.375" x="89.325" y="32.865" fill="rgb(0,0,0)" rx="0" ry="0" transform="rotate(43.700016 90.68299326 41.55267067)"/>
    </g>
    <rect width="2.716" height="17.375" x="88.394" y="31.963" fill="rgb(255,210,0)" rx="0" ry="0" transform="rotate(43.700016 89.75202078 40.65073991)"/>
    <ellipse cx="97.998" cy="33.851" fill="rgb(255,210,0)" rx="8.084" ry="5.39" transform="rotate(-46.300017 97.99780275 33.8511584)"/>
    <g opacity=".08">
      <ellipse cx="97.998" cy="33.851" fill="rgb(0,0,0)" rx="8.084" ry="5.39" transform="rotate(-46.300017 97.99780275 33.8511584)"/>
    </g>
    <ellipse cx="97.065" cy="32.957" fill="rgb(255,210,0)" rx="8.084" ry="5.39" transform="rotate(-46.300017 97.06454227 32.9566727)"/>
    <g opacity=".57">
      <ellipse cx="97.065" cy="32.957" fill="rgb(255,255,255)" rx="5.34" ry="3.56" transform="rotate(-46.300017 97.06454227 32.9566727)"/>
    </g>
    <path fill="rgb(244,162,140)" fill-rule="evenodd" d="M80.49340619 10.19440325s-2.04409306 2.98725578-4.02926548 4.45579984c-.38880743.28502241-.87424782.40287014-1.3494389.32759594-.47519107-.0752742-.9011708-.3374984-1.18414873-.72893718-.72064478-1.01703517-1.40049835-2.60415732-.49855928-4.33722174l1.16934813-3.13319804c.62118112-1.22710816 1.94233298-1.92833668 3.29955599-1.7513072 2.47919934.14594226 3.92502126 3.41140048 2.59250827 5.16726838z"/>
    <path fill="rgb(244,162,140)" fill-rule="evenodd" d="M76 7l-10 3.97707231L67.22850123 18l7.2088452-5.80555556L76 7z"/>
    <path fill="rgb(36,40,91)" fill-rule="evenodd" d="M80.51035785 9.29974836c-.8999635-.72870887-1.7178757-1.56529056-2.43753194-2.4931705-.13313425 1.28419052-.96905034 2.36270348-2.12939111 2.74737612C74.81466817 9.94900799 73.58079134 9.43873975 73 8.33670015l3.03541714-3.8130843c.84514318-1.14963007 2.21602677-1.71296603 3.56891469-1.46657089.57369523.10503254 1.1405294.24872028 1.69707413.43019413 1.37973506.48885696 2.34095048 2.55183334 3.85865905 2.62027331.31048963.01612619.59013074.20459932.736271.49623357.14614026.29163425.13724978.64346502-.02340788.92634019-.74505694 1.31502523-2.3731443 2.98691603-4.36456192 2.317182-.35873683-.12291664-.69593515-.30790783-.99800836-.5475198z"/>
    <path fill="rgb(244,162,140)" fill-rule="evenodd" d="M75.59423303 9.66805248s.91297569-1.00844818 0-1.55048907C74.68125734 7.57552251 73.34062462 9.02936863 74.37372869 10l1.22050434-.33194752z"/>
    <path fill="rgb(244,162,140)" fill-rule="evenodd" d="M80 12l-.09917355 1.5300683c-.01697548.17396453-.1218719.32788816-.27914893.40961944-.15727701.08173128-.34585564.0803162-.5018428-.00376578L78 13.32714147 80 12z"/>
    <g opacity=".31">
      <path fill="rgb(206,129,114)" fill-rule="evenodd" d="M73.8126649 12.9483568S74.13456465 10.81220658 75 10c0 0-3.91029024 1.17370892-4 5l2.8126649-2.0516432z"/>
    </g>
    <g opacity=".08">
      <path fill="rgb(0,0,0)" fill-rule="evenodd" d="M10.00001913 39.15871669S9.84666461 16.73875403 37 12L21.04633718 40h-11.0223564l-.02396165-.84128331z"/>
    </g>
    <path fill="rgb(61,128,252)" fill-rule="evenodd" d="M67.95476455 20.84233378l-.78806617-4.71223924c-.6264195-3.90651454-3.1619156-7.20763117-6.71263505-8.73958803-1.52043648-.62498195-3.11019086-1.05428513-4.73308788-1.27814064-2.0827463-.29903667-5.00046748 0-8.26531303.88264052C33.392434 10.7908429 23.07251988 23.0417003 20.93817402 37.81025359L20 44.34565194 43.13068023 46s-1.17271751-6.75244109 7.03630508-6.75244109 18.60399063.0868171 17.78777924-18.40522513z"/>
    <g opacity=".08">
      <path fill="rgb(0,0,0)" fill-rule="evenodd" d="M46 13s-11.541087 2.0210021-24.22519013 20.21482148L20 43.66546655 38.04711556 45 46 13z"/>
    </g>
    <path fill="rgb(61,128,252)" fill-rule="evenodd" d="M58.59098089 21.45380343c2.21039595-7.47386627-6.3613965-13.51819971-12.47193434-8.76908058-5.11183646 3.96719346-10.8863184 11.11006052-11.11351113 23.16514778C34.61268132 57.60467393 55.17362355 53.7142339 83 45.38168853l-.88510502-6.33695594s-33.32160065 6.38492683-28.79667874-4.59081516c1.89327276-4.59081517 4.09893553-9.02332636 5.27276465-13.000114z"/>
    <g opacity=".2">
      <path fill="rgb(255,255,255)" fill-rule="evenodd" d="M58.59098089 21.45380343c2.21039595-7.47386627-6.3613965-13.51819971-12.47193434-8.76908058-5.11183646 3.96719346-10.8863184 11.11006052-11.11351113 23.16514778C34.61268132 57.60467393 55.17362355 53.7142339 83 45.38168853l-.88510502-6.33695594s-33.32160065 6.38492683-28.79667874-4.59081516c1.89327276-4.59081517 4.09893553-9.02332636 5.27276465-13.000114z"/>
    </g>
    <path fill="rgb(36,40,91)" fill-rule="evenodd" d="M46.99848678 52s.68231606 23.58810684-26.93030922 28L19 75.00016798s22.11645174-5.47959012 7.83016504-20.15924744L46.99848678 52z"/>
    <g opacity=".08">
      <ellipse cx="91" cy="83" fill="rgb(0,0,0)" rx="3" ry="1"/>
    </g>
    <g opacity=".08">
      <ellipse cx="102" cy="80" fill="rgb(0,0,0)" rx="3" ry="1"/>
    </g>
    <g opacity=".08">
      <ellipse cx="114" cy="82" fill="rgb(0,0,0)" rx="3" ry="1"/>
    </g>
    <g opacity=".08">
      <ellipse cx="132" cy="83" fill="rgb(0,0,0)" rx="3" ry="1"/>
    </g>
    <g opacity=".08">
      <ellipse cx="79" cy="80" fill="rgb(0,0,0)" rx="3" ry="1"/>
    </g>
    <path fill="rgb(244,162,140)" fill-rule="evenodd" d="M83 40.10536087s7.22659097-.85456492 7.8608159 2.3038271c.63422491 3.158392-.75035062 4.83253967-7.25338922 2.49872785L83 40.10536087z"/>
    <path fill="rgb(244,162,140)" fill-rule="evenodd" d="M6 39.93089214s1.16664411 4.97210304 5.83822762 3.92395844C16.50981114 42.80670598 13.17511165 36.70745245 6 39.93089214z"/>
  </g>
</svg>
