<svg id="svg" xmlns="http://www.w3.org/2000/svg" xmlns:xlink="http://www.w3.org/1999/xlink" width="400" height="265.6671664167916" viewBox="0, 0, 400,265.6671664167916"><g id="svgg"><path id="path0" d="M276.862 9.395 L 276.862 18.791 286.857 18.791 L 296.852 18.791 296.852 51.274 L 296.852 83.758 306.247 83.758 L 315.642 83.758 315.642 51.274 L 315.642 18.791 325.537 18.791 L 335.432 18.791 335.432 9.395 L 335.432 0.000 306.147 0.000 L 276.862 0.000 276.862 9.395 M0.000 41.979 L 0.000 83.758 9.395 83.758 L 18.791 83.758 18.791 72.682 L 18.791 61.605 25.637 61.515 C 34.341 61.401,36.619 60.957,41.840 58.355 C 64.224 47.201,64.423 15.144,42.179 3.726 C 35.727 0.414,34.060 0.204,14.243 0.202 L 0.000 0.200 0.000 41.979 M67.623 28.236 C 67.699 59.576,67.596 57.316,69.157 61.990 C 79.383 92.612,123.345 90.193,130.575 58.610 L 131.019 56.672 131.082 28.436 L 131.146 0.200 121.749 0.200 L 112.352 0.200 112.298 27.436 L 112.244 54.673 111.803 55.827 C 107.129 68.071,91.330 68.036,86.924 55.772 L 86.457 54.473 86.402 27.336 L 86.347 0.200 76.951 0.200 L 67.554 0.200 67.623 28.236 M139.930 41.979 L 139.930 83.758 167.016 83.758 L 194.103 83.758 194.103 74.363 L 194.103 64.968 176.412 64.968 L 158.721 64.968 158.721 58.171 L 158.721 51.374 176.412 51.374 L 194.103 51.374 194.103 41.979 L 194.103 32.584 176.412 32.584 L 158.721 32.584 158.721 25.787 L 158.721 18.991 176.412 18.991 L 194.103 18.991 194.103 9.595 L 194.103 0.200 167.016 0.200 L 139.930 0.200 139.930 41.979 M202.899 41.979 L 202.899 83.758 212.393 83.758 L 221.887 83.758 221.938 60.335 L 221.989 36.911 234.986 60.285 L 247.982 83.658 258.124 83.710 L 268.266 83.762 268.266 41.981 L 268.266 0.200 258.871 0.200 L 249.477 0.200 249.426 23.873 L 249.375 47.546 236.187 23.873 L 222.998 0.200 212.948 0.200 L 202.899 0.200 202.899 41.979 M344.228 41.979 L 344.228 83.758 371.314 83.758 L 398.401 83.758 398.401 74.363 L 398.401 64.968 380.710 64.968 L 363.018 64.968 363.018 58.171 L 363.018 51.374 380.710 51.374 L 398.401 51.374 398.401 41.979 L 398.401 32.584 380.710 32.584 L 363.018 32.584 363.018 25.787 L 363.018 18.991 380.710 18.991 L 398.401 18.991 398.401 9.595 L 398.401 0.200 371.314 0.200 L 344.228 0.200 344.228 41.979 M29.440 19.194 C 39.348 20.627,43.421 32.125,36.490 39.097 C 33.353 42.252,32.083 42.642,24.638 42.736 L 18.791 42.810 18.791 30.900 L 18.791 18.991 23.438 18.994 C 25.995 18.997,28.695 19.087,29.440 19.194 M188.106 104.548 L 188.106 113.943 189.502 113.943 L 190.899 113.943 190.952 108.040 L 191.004 102.137 197.081 108.490 C 200.424 111.984,203.235 114.873,203.328 114.909 C 203.422 114.946,203.498 110.785,203.498 105.664 L 203.498 96.352 202.102 96.352 L 200.706 96.352 200.653 102.247 L 200.600 108.143 194.406 101.648 C 190.999 98.075,188.188 95.152,188.159 95.152 C 188.130 95.152,188.106 99.380,188.106 104.548 M256.472 104.548 L 256.472 113.943 257.968 113.943 L 259.464 113.943 259.517 108.046 L 259.570 102.148 265.667 108.539 C 269.020 112.054,271.832 114.933,271.914 114.936 C 271.997 114.940,272.064 110.760,272.064 105.647 L 272.064 96.352 270.668 96.352 L 269.271 96.352 269.218 102.257 L 269.165 108.162 262.969 101.659 C 259.560 98.083,256.704 95.156,256.622 95.155 C 256.539 95.153,256.472 99.380,256.472 104.548 M349.825 104.509 L 349.825 113.943 351.224 113.943 L 352.624 113.943 352.630 107.996 L 352.637 102.049 356.772 106.347 C 359.046 108.711,361.876 111.634,363.060 112.844 L 365.213 115.042 365.215 105.697 L 365.217 96.352 363.821 96.352 L 362.425 96.352 362.372 102.211 L 362.319 108.070 356.722 102.207 C 353.643 98.981,350.832 96.057,350.475 95.708 L 349.825 95.074 349.825 104.509 M52.770 103.198 C 50.759 107.514,48.815 111.697,48.450 112.494 L 47.786 113.943 49.347 113.943 L 50.907 113.943 51.829 111.894 L 52.750 109.845 56.418 109.791 L 60.085 109.737 60.977 111.837 L 61.869 113.937 63.440 113.940 C 64.834 113.943,64.996 113.905,64.880 113.605 C 64.304 112.103,56.674 95.352,56.566 95.352 C 56.490 95.352,54.782 98.883,52.770 103.198 M285.182 96.002 C 285.027 96.359,283.218 100.250,281.160 104.648 C 279.102 109.045,277.292 112.936,277.138 113.293 L 276.856 113.943 278.420 113.943 L 279.983 113.943 280.895 111.894 L 281.807 109.845 285.492 109.791 L 289.176 109.737 290.053 111.840 L 290.930 113.943 292.513 113.943 C 293.698 113.943,294.071 113.880,293.997 113.693 C 293.290 111.897,285.731 95.352,285.618 95.352 C 285.532 95.352,285.336 95.645,285.182 96.002 M374.511 104.369 C 372.203 109.329,370.285 113.516,370.249 113.674 C 370.195 113.907,370.465 113.950,371.710 113.902 L 373.238 113.843 374.159 111.794 L 375.080 109.745 378.716 109.745 L 382.352 109.745 383.253 111.794 L 384.154 113.843 385.680 113.901 C 386.520 113.934,387.206 113.884,387.206 113.791 C 387.206 113.476,379.042 95.463,378.874 95.407 C 378.782 95.376,376.819 99.409,374.511 104.369 M38.181 96.129 C 32.727 97.318,32.830 103.101,38.347 105.453 C 41.966 106.995,42.885 108.744,41.100 110.692 C 39.471 112.469,36.382 111.274,36.382 108.865 C 36.382 108.271,36.302 108.260,34.713 108.639 C 33.237 108.992,33.288 108.915,33.666 110.217 C 35.548 116.688,45.333 114.855,44.724 108.146 C 44.521 105.901,43.560 104.771,40.780 103.510 C 38.090 102.290,37.702 102.047,37.348 101.360 C 36.172 99.079,39.840 97.735,41.600 99.802 L 42.120 100.413 43.259 99.761 L 44.397 99.110 44.062 98.580 C 42.811 96.606,40.470 95.630,38.181 96.129 M107.770 96.167 C 99.899 97.551,97.616 108.233,104.251 112.637 C 109.893 116.382,117.576 113.132,118.591 106.572 C 119.558 100.324,114.082 95.058,107.770 96.167 M155.033 96.164 C 151.463 96.762,148.288 99.995,147.682 103.650 C 146.227 112.429,157.187 117.845,163.423 111.429 C 169.561 105.113,163.833 94.692,155.033 96.164 M304.472 96.165 C 299.573 97.034,296.213 102.180,297.276 107.187 C 298.442 112.673,304.808 115.821,309.966 113.460 L 311.044 112.966 311.044 111.244 C 311.044 110.297,310.969 109.569,310.876 109.626 C 310.783 109.683,310.246 110.040,309.682 110.420 C 304.233 114.087,297.767 108.204,300.665 102.217 C 302.314 98.811,306.281 97.773,309.723 99.845 C 310.367 100.233,310.927 100.550,310.969 100.550 C 311.342 100.550,310.996 97.329,310.595 97.074 C 309.271 96.232,306.454 95.814,304.472 96.165 M333.033 96.177 C 325.912 97.332,323.034 106.864,328.343 111.716 C 334.432 117.281,343.728 113.313,343.728 105.147 C 343.728 99.138,339.038 95.203,333.033 96.177 M0.000 105.147 L 0.000 113.943 2.749 113.940 C 10.399 113.930,14.426 110.046,13.430 103.637 C 12.640 98.555,9.385 96.356,2.649 96.353 L 0.000 96.352 0.000 105.147 M18.991 105.147 L 18.991 113.943 23.888 113.943 L 28.786 113.943 28.786 112.644 L 28.786 111.344 25.287 111.344 L 21.789 111.344 21.789 108.546 L 21.789 105.747 25.187 105.747 L 28.586 105.747 28.586 104.348 L 28.586 102.949 25.187 102.949 L 21.789 102.949 21.789 100.950 L 21.789 98.951 25.287 98.951 L 28.786 98.951 28.786 97.651 L 28.786 96.352 23.888 96.352 L 18.991 96.352 18.991 105.147 M69.165 105.123 L 69.165 113.943 70.565 113.943 L 71.964 113.943 71.964 110.345 C 71.964 108.366,72.037 106.747,72.127 106.747 C 72.217 106.747,73.409 108.364,74.776 110.340 L 77.261 113.933 79.022 113.938 C 80.379 113.942,80.749 113.886,80.633 113.693 C 80.550 113.556,79.416 111.976,78.112 110.183 C 75.239 106.233,75.354 106.541,76.550 106.017 C 78.961 104.959,79.937 101.352,78.484 98.872 C 77.409 97.038,76.113 96.535,72.114 96.401 L 69.165 96.302 69.165 105.123 M85.357 105.123 L 85.357 113.943 86.757 113.943 L 88.156 113.943 88.156 110.345 C 88.156 108.366,88.226 106.747,88.312 106.747 C 88.398 106.747,89.590 108.363,90.961 110.339 L 93.453 113.932 95.214 113.937 C 96.571 113.942,96.941 113.886,96.825 113.693 C 96.742 113.556,95.607 111.976,94.303 110.183 C 91.431 106.233,91.546 106.541,92.741 106.017 C 95.152 104.959,96.129 101.352,94.676 98.872 C 93.601 97.038,92.305 96.535,88.306 96.401 L 85.357 96.302 85.357 105.123 M124.138 105.147 L 124.138 113.943 128.036 113.943 L 131.934 113.943 131.934 112.644 L 131.934 111.344 129.435 111.344 L 126.937 111.344 126.937 103.848 L 126.937 96.352 125.537 96.352 L 124.138 96.352 124.138 105.147 M136.532 105.147 L 136.532 113.943 140.530 113.943 L 144.528 113.943 144.528 112.644 L 144.528 111.344 142.029 111.344 L 139.530 111.344 139.530 103.848 L 139.530 96.352 138.031 96.352 L 136.532 96.352 136.532 105.147 M178.511 105.147 L 178.511 113.943 179.910 113.943 L 181.309 113.943 181.309 105.147 L 181.309 96.352 179.910 96.352 L 178.511 96.352 178.511 105.147 M208.496 97.651 L 208.496 98.951 210.495 98.951 L 212.494 98.951 212.494 106.447 L 212.494 113.943 213.893 113.943 L 215.292 113.943 215.292 106.447 L 215.292 98.951 217.291 98.951 L 219.290 98.951 219.290 97.651 L 219.290 96.352 213.893 96.352 L 208.496 96.352 208.496 97.651 M224.088 105.147 L 224.088 113.943 228.986 113.943 L 233.883 113.943 233.883 112.644 L 233.883 111.344 230.385 111.344 L 226.887 111.344 226.887 108.546 L 226.887 105.747 230.285 105.747 L 233.683 105.747 233.683 104.348 L 233.683 102.949 230.285 102.949 L 226.887 102.949 226.887 100.950 L 226.887 98.951 230.385 98.951 L 233.883 98.951 233.883 97.651 L 233.883 96.352 228.986 96.352 L 224.088 96.352 224.088 105.147 M239.880 105.123 L 239.880 113.943 241.279 113.943 L 242.679 113.943 242.679 110.345 C 242.679 108.366,242.746 106.748,242.829 106.749 C 242.911 106.751,244.103 108.369,245.477 110.345 L 247.976 113.938 249.737 113.940 C 251.095 113.942,251.463 113.886,251.344 113.693 C 251.259 113.556,250.084 111.926,248.733 110.071 C 245.928 106.221,246.056 106.507,246.997 106.167 C 249.993 105.083,250.842 100.364,248.468 97.990 C 247.279 96.801,246.285 96.521,242.829 96.403 L 239.880 96.302 239.880 105.123 M316.842 105.147 L 316.842 113.943 318.241 113.943 L 319.640 113.943 319.640 105.147 L 319.640 96.352 318.241 96.352 L 316.842 96.352 316.842 105.147 M392.004 105.147 L 392.004 113.943 396.002 113.943 L 400.000 113.943 400.000 112.644 L 400.000 111.344 397.401 111.344 L 394.803 111.344 394.803 103.848 L 394.803 96.352 393.403 96.352 L 392.004 96.352 392.004 105.147 M111.831 99.163 C 116.232 100.809,117.200 106.660,113.614 109.937 C 109.573 113.630,103.229 110.631,103.272 105.047 C 103.307 100.504,107.574 97.570,111.831 99.163 M159.694 99.456 C 165.659 102.702,163.078 111.984,156.345 111.499 C 150.413 111.071,148.305 103.450,153.135 99.896 C 154.950 98.560,157.709 98.375,159.694 99.456 M336.895 99.069 C 341.074 100.493,342.364 106.161,339.284 109.570 C 336.409 112.752,331.026 111.929,329.110 108.013 C 326.600 102.881,331.514 97.235,336.895 99.069 M6.756 99.457 C 8.961 100.112,10.617 102.421,10.649 104.887 C 10.698 108.589,8.412 110.938,4.448 111.261 L 2.799 111.396 2.799 105.146 L 2.799 98.895 4.286 99.030 C 5.104 99.104,6.215 99.296,6.756 99.457 M75.088 99.476 C 77.690 100.710,76.419 104.045,73.251 104.299 L 71.964 104.403 71.964 101.648 L 71.964 98.894 73.180 99.021 C 73.850 99.091,74.708 99.296,75.088 99.476 M91.280 99.476 C 93.867 100.703,92.625 103.988,89.463 104.284 L 88.156 104.406 88.156 101.650 L 88.156 98.894 89.372 99.021 C 90.041 99.091,90.900 99.296,91.280 99.476 M245.803 99.476 C 248.577 100.792,246.816 104.348,243.390 104.348 L 242.679 104.348 242.679 101.621 L 242.679 98.894 243.895 99.021 C 244.564 99.091,245.423 99.296,245.803 99.476 M286.739 104.213 C 287.353 105.624,287.856 106.816,287.856 106.862 C 287.856 107.015,283.258 106.950,283.255 106.797 C 283.252 106.637,285.535 101.575,285.589 101.622 C 285.607 101.637,286.124 102.803,286.739 104.213 M57.756 104.387 C 58.314 105.672,58.771 106.774,58.771 106.835 C 58.771 106.896,57.736 106.947,56.472 106.947 C 55.207 106.947,54.173 106.886,54.173 106.813 C 54.173 106.416,56.458 101.757,56.588 101.890 C 56.672 101.978,57.198 103.101,57.756 104.387 M380.039 104.352 L 381.168 106.947 378.773 106.947 C 377.456 106.947,376.408 106.869,376.445 106.774 C 376.848 105.732,378.715 101.750,378.799 101.753 C 378.860 101.755,379.419 102.925,380.039 104.352 M0.000 196.002 L 0.000 265.667 8.882 265.667 L 17.764 265.667 17.899 265.217 C 18.458 263.351,24.563 251.844,28.054 246.077 C 36.386 232.311,48.689 216.677,56.445 209.995 L 58.766 207.996 58.768 167.166 L 58.771 126.337 29.385 126.337 L 0.000 126.337 0.000 196.002 M67.566 162.730 C 67.566 191.793,67.617 199.094,67.816 198.973 C 67.954 198.890,68.876 198.135,69.865 197.295 C 86.899 182.840,107.475 170.886,129.385 162.718 L 131.134 162.066 131.134 144.201 L 131.134 126.337 99.350 126.337 L 67.566 126.337 67.566 162.730 M139.930 142.742 C 139.930 158.274,139.949 159.142,140.280 159.038 C 155.062 154.437,174.480 151.174,190.555 150.590 L 194.103 150.462 194.103 138.399 L 194.103 126.337 167.016 126.337 L 139.930 126.337 139.930 142.742 M202.899 138.322 L 202.899 150.307 203.548 150.405 C 203.906 150.459,205.947 150.554,208.085 150.616 C 226.645 151.153,251.529 155.990,268.016 162.266 C 268.215 162.342,268.266 158.677,268.266 144.349 L 268.266 126.337 235.582 126.337 L 202.899 126.337 202.899 138.322 M276.911 146.036 L 276.962 165.735 280.260 167.168 C 298.490 175.085,316.836 186.782,332.199 200.282 C 333.774 201.666,335.146 202.829,335.247 202.865 C 335.360 202.906,335.432 188.002,335.432 164.634 L 335.432 126.337 306.146 126.337 L 276.860 126.337 276.911 146.036 M344.228 169.037 L 344.228 211.737 346.377 214.064 C 359.874 228.679,370.538 244.236,378.911 261.525 L 380.910 265.653 389.655 265.660 L 398.401 265.667 398.401 196.002 L 398.401 126.337 371.314 126.337 L 344.228 126.337 344.228 169.037 " stroke="none" fill="#000000" fill-rule="evenodd"></path></g></svg>