<svg xmlns="http://www.w3.org/2000/svg" width="382" height="290" viewBox="0 0 382 290">
  <defs>
    <linearGradient id="linearGradient-9" x1="200.154" x2="200.154" y1="264.666" y2="7.099" gradientUnits="userSpaceOnUse">
      <stop offset="0" stop-color="rgb(128,128,128)" stop-opacity=".25"/>
      <stop offset=".54" stop-color="rgb(128,128,128)" stop-opacity=".12"/>
      <stop offset="1" stop-color="rgb(128,128,128)" stop-opacity=".1"/>
    </linearGradient>
  </defs>
  <g>
    <g opacity=".1">
      <path fill="rgb(61,128,252)" fill-rule="evenodd" d="M90.7174361 242.6922933c-3.226625-.32083216-6.59749911-.66404796-9.65330279.17533851-3.05580368.83938647-5.5877553 3.29039496-4.68050427 5.63321585 2.02707971 5.22284914 13.92383589 1.58550778 19.40909839 5.15569822 1.95875118 1.27586743 2.72175309 3.28293374 4.25155294 4.84978848 2.47501118 2.54427365 6.73036015 3.73060653 10.83766397 4.38346267 24.67419118 3.92086745 52.80276912-6.1704232 74.42874868 3.5478068 7.00367427 3.1486319 12.52689706 8.15883647 20.20626456 10.25916794 10.17335883 2.78303247 21.31470515-.19026093 31.84109471-2.09660086 13.12791868-2.35761467 26.50973358-3.0472087 39.8165525-2.0518336 9.84310427.74612131 22.93560971.99607195 26.08631413-6.02866014 2.0270797-4.5177645-2.26243353-9.5466221-7.95647765-11.68425963-5.69404412-2.13763754-12.35987177-2.07048662-18.71822103-1.86530326-12.2725631.43275036-24.54892221 1.30571228-36.8214853.88042314-23.73277588-.82819465-46.1521256-10.07263762-69.26235265-10.37854735-26.91384853-.32083216-52.74582868 1.89887872-79.78494619-.77969677z"/>
    </g>
    <g opacity=".1">
      <path fill="rgb(61,128,252)" fill-rule="evenodd" d="M65.14126492 123.91568279c-3.94327814 3.9202289-4.18381811 9.93047106-4.18381811 9.93047106s6.10813784-.34122665 10.03564287-4.26533314c3.92750503-3.92410649 4.18776138-9.93047106 4.18776138-9.93047106s-6.11208112.35285938-10.03958614 4.26533314z"/>
    </g>
    <g opacity=".1">
      <path fill="rgb(61,128,252)" fill-rule="evenodd" d="M80.66800428 29.33958447c1.45803621 5.04242592 6.80692261 8.17789805 6.80692261 8.17789805s2.98628948-5.0350915 1.52825326-10.07751742c-1.45803621-5.04242593-6.80692262-8.17423083-6.80692262-8.17423083s-3.00281113 5.03509149-1.52825325 10.0738502z"/>
    </g>
    <g opacity=".1">
      <path fill="rgb(61,128,252)" fill-rule="evenodd" d="M302.87925075 42.79951343c-3.94327814 3.9191584-4.18776139 9.9277593-4.18776139 9.9277593s6.11208112-.34113347 10.03958615-4.26416838c3.92750503-3.92303492 4.1838181-9.93163582 4.1838181-9.93163582s-6.10813783.36826909-10.03564286 4.2680449z"/>
    </g>
    <g opacity=".1">
      <path fill="rgb(61,128,252)" fill-rule="evenodd" d="M185.96334944 97.036085c-.50609435 5.04061955 3.60810367 9.43244647 3.60810367 9.43244647s4.94314566-3.78224705 5.44924-8.82643138c.50609435-5.04418433-3.60810367-9.42531687-3.60810367-9.42531687s-4.94314565 3.77511746-5.44924 8.81930179z"/>
    </g>
    <g opacity=".1">
      <path fill="rgb(61,128,252)" fill-rule="evenodd" d="M309.91015795 171.05890594c-.50609435 5.03963524 3.60810367 9.43060455 3.60810367 9.43060455s4.94314566-3.78150847 5.44924-8.8211437c.50609435-5.03963524-3.60810367-9.43060455-3.60810367-9.43060455s-4.94314565 3.78150847-5.44924 8.8211437z"/>
    </g>
    <g opacity=".1">
      <path fill="rgb(61,128,252)" fill-rule="evenodd" d="M221.94548008 36.44371315c-24.48932029-.73731874-47.81320321-7.56224344-70.08516539-15.04886444-22.27196218-7.486621-44.33202665-15.76349644-68.23484437-19.726112C68.25153516-.87973932 50.66780967-1.23894589 38.2831457 5.88846855c-11.9230297 6.85517367-15.77502724 18.69386577-17.84481373 29.67802436-1.55896168 8.26175095-2.47466247 16.9583309 1.7935627 24.69450594 2.96656785 5.37297396 8.22617156 9.88763329 11.86627139 15.02995882 12.66467166 17.90361134 3.7119937 39.97779992-10.0083826 57.47305011-6.43260885 8.201253-13.90578678 16.02061272-18.87403115 24.75122276-4.96824436 8.73061005-7.26506411 18.72789587-2.9173773 27.6286564 4.30606404 8.82513808 14.57175099 15.45344445 25.69259653 20.11556753 22.58602484 9.4528043 49.19053828 12.17899305 75.15179083 13.71412847 57.45076482 3.40300954 115.20424065 1.92837207 172.80636097.4537346 21.31842252-.54448152 42.72765833-1.0965253 63.69796319-3.94749107 11.64680591-1.58050888 23.66821669-4.0911737 32.12520538-10.15609293 10.73110513-7.69836382 13.39117808-20.73189038 6.19800783-30.38509412-12.06303354-16.18698208-45.40665072-20.21009558-53.84850387-37.58434988-4.63904615-9.56245682.1248683-20.2138767 6.87153981-29.08438825 14.46958603-19.02660448 38.7205214-35.72025686 39.99569151-57.4730501.87786191-14.93543079-10.78029566-29.8935483-28.806736-36.96046479-18.89295058-7.41099857-45.09637193-6.4770615-59.02864593 5.78511623-14.3598533 12.61004093-39.58324777 17.46878233-61.20816517 16.82221052z"/>
    </g>
    <path fill="url(#linearGradient-9)" fill-rule="evenodd" d="M299.79724121 108.52658081c.39993286-1.01501465 1.26049805-1.7760315 2.31414795-2.04641724 0 0 8.34439087-2.41331482 7.72253418 7.57662964-.6218872 9.98995972-7.0592041 4.5164795-7.0592041 4.5164795-.64263916-.18682862-1.26409912-.44036866-1.85430908-.75653077l-.19976807.09457398c-2.19351196 1.03643799-5.4649353 2.39819336-7.88458252 2.59866333-.27194214.02294922-.53115845.04611206-.77954102.06829834-3.39407348.3031311-4.77029418.4260559-9.01965332-2.58755493-3.4975891-2.48138428-9.35827636-5.9387207-11.89474487-7.41772461-.0086975.22613525.0013733.4526062.03015137.67706299l-.3768921-.44256592c.00186158.0201416.00186158.04040527 0 .06054687l-.87442016-1.00619507-4.752594-5.4583435c-.31222533.01977539-.61434936.11868286-.8781433.28747558-1.02514649.56739808-2.78149414 2.26202393-4.37194824 7.32318116 0 0-2.94732666 4.45217895-2.56289673 18.53494262.38442993 14.08273316-.89700318 17.3774109-.89700318 17.3774109l-.37689209-.0340271c.04522705.24588012.08291626.49929809.1168213.77545165.84048461 6.67636109-.87814332 21.45889282-.87814332 21.45889282l-6.27902221 27.27282715-1.8392334-.2458496c-.03771973.25720214-.0791626.50305175-.1319275.75650024-.49658202 2.12661743-1.18276977 4.20410156-2.05029296 6.2073059-.75253296 1.79034424-1.1678772 3.7052002-1.22488404 5.64749146v.19290161c-.18634033 5.75732422-1.39239501 11.43536377-3.5616455 16.76843262-2.12190247 5.26922607-4.94107056 12.11956787-5.78530884 13.56079102-.52017212 1.00958251-.79646301 2.12783813-.80654907 3.2644043 1.93722534.82458495 1.04022216 4.17602538.5427246 5.44320678-.49749755 1.2671814-.14321899 9.57763672.25628663 13.31866455.33888244 3.17333984-5.0117035 2.32940674-7.58200074 1.92401123-.45977783-.07254028-.83058166-.13101196-1.06391906-.14996338-1.53771973-.1248169-2.70231629-1.90264892-3.45610047-12.04769897-.74247741-9.80081177 3.16966248-10.72753907 3.44102478-10.78051758l.0904541-8.64709473c-.85177612-9.69866943 2.27644349-18.66732788 3.9724579-22.6958313.67472838-1.61907959 1.05755614-3.34555053 1.13067626-5.09899902l.40327454-9.00268555.03392028-.75650024-.94976806-.12484741v-9.38851929l-1.60179138 9.64196777h-.13945008c.03768921.23449707.07914734.48794556.12814331.75653077.11306763.6052246.26005555 1.27471923.46357727 2.03125.94685364 3.57833862-4.1535797 7.75448608-6.07521057 9.32788085-.42660522.3493042-.6965332.5703125-.7088623.62805176-.97615051 4.85308838-2.42718506 8.62438965-5.12197876 10.8447876-2.69476318 2.22042847-6.46369934 8.18188477-6.46369934 8.18188477.0236206 2.39492797-.24855042 4.78356933-.810318 7.11132812 1.6183014.6888733.45918274 3.18859863-.2563324 4.73165894-.14100646.30407714-.26480102.5710144-.34669494.77963256-.49749756 1.26721192-.14698791 9.57766724.25628662 13.31869507.34207154 3.17330933-5.00794983 2.32943726-7.578125 1.92401123-.4598236-.07250976-.83067322-.13101196-1.06402588-.14996338-1.53771972-.12481689-2.69100952-1.89889526-3.45986938-12.04769897-.76885986-10.14880371 2.97367859-10.92803955 2.97367859-10.92803955-.10816956.10940552-.17710877.25177002-.19598389.40472412.12437439-.27233887.2713623-.55603027.43719482-.85107422 1.92115784-3.48077392 3.11750794-7.31707764 3.5164032-11.27606201l.24874878-2.33764648c-.46734619-14.53289795 5.35942078-19.24227906 7.82429505-20.58514405.68452453-.37469482 1.14126587-1.06369018 1.22114563-1.84210205l.07913208-.75653076-7.2024231-.35180664 1.13067627-21.11846924c1.1938324-4.2083435 2.02975464-8.5107727 2.49880981-12.86096191.42588807-4.77368164 2.71739197-16.54525757 3.81793213-22.07928467.04522705-.21557617.08666993-.42364502.12435913-.61654663-1.91838073-2.20529175-2.26135253-.518219-2.26135253-.518219s-.49372864-9.89160156 2.94729614-17.88430786c3.44104004-7.9927063 2.68725586-30.95333862 2.68725586-30.95333862s.38442993-11.28738403-10.8808899-10.27365112l-.09799194-.04537964-.67086792.04537964s.04898071-.10968018.13189697-.31394959c-2.2538147-1.11587524-9.98010254-4.8985138-14.85710144-7.16810608-5.76646423-2.68188476-4.86946106-5.32972717-4.86946106-5.32972717l-.8291626-27.90452576-1.47741699-5.0119934c-.06750488-1.49369813-.05618286-2.9899292.03393555-4.48242188l-2.85308838 3.3022461c.36560059.48417663.58041382.79812621.58041382.79812621s-.10928345.12104798-.2977295.34422303c.18844605.26100158.2977295.4198761.2977295.4198761-4.0617218 4.69007873-7.80633545 9.647583-11.20878601 14.83929443-5.25010681 8.11753845-9.15470886 8.05700683-9.15470886 8.05700683l-18.50920105 9.83486939c-.44334412.97782898-.68560791 2.03535461-.71232605 3.10931396.08291626 2.07289124.87815857 4.76612854 3.59555053 7.54637146 1.69013978 1.73738099 2.56558228 4.11338807 2.40834046 6.53639222.02430725 1.71722412-.26304627 3.42454528-.8480072 5.03848266l3.5616455 4.02850342s2.36688233 2.91262817 5.18603516-1.51306152c2.81915283-4.42567444 8.0692749-12.36921692 8.0692749-12.36921692l.2713623.2307434c-.23745727-3.8620758-.38067626-14.08276367 5.10688783-10.82212829 6.72377014 3.99446106 2.0917511 11.0982666 2.0917511 11.0982666l-1.13067628 3.61619568c.33883667.1188507.7110901.0956726 1.03268433-.0643158 1.53771973-1.0137329-14.15231323 21.12225342-14.15231323 21.12225342s-5.00891113 7.29293823-12.43745423-1.33526611l-.7047882-.32530213c.76885986 8.6281891 3.26765442 19.48057557 3.26765442 19.48057557l-.1809082-.04159546c.11306762.51443481.1809082.8019104.1809082.8019104s-.45980835-.09832764-1.2437439-.29504395l.15452576 7.97003174s17.28805542 12.61886597 25.42141723 25.4949646c8.1333313 12.87609863-3.84054565 14.08276367-3.84054565 14.08276367l-11.16355896-.50308227c.0904541 2.32629394.24874878 5.26922607.53141784 8.62060547.70478821 8.30670166-2.43095397 11.0982666-2.43095397 11.0982666s-9.86328125 18.70892334-12.93495179 22.96063232c-2.19351196 3.02990723-3.21490478 8.51470947-3.61817932 11.40844727 1.05906677.41229248 2.05030823 1.38442993 1.88447571 2.73483276-.30529785 2.59866333.44848633 11.48031616.44848633 11.48031616l4.28527832 4.16845703s2.05406189 3.74102784-3.0716858 4.1230774c-5.12573241.38204956-17.80439758-10.72000122-21.70901489-16.55282593-3.4108734-5.09521484 5.13328553-8.46176148 7.36071778-9.21829224 1.24751282-1.52816772 4.73001098-6.16567993 5.25389099-10.88644409.64071655-5.77227783 4.61315918-15.28942871 8.45368957-21.37567139 3.84054566-6.08627319-.89700317-13.31866455-.89700317-13.31866455l-2.79277039-6.09005737-11.87965393-.53335571-.04899597.02648926c.3341217.4697876.46961975 1.05310058.3768921 1.6227417l-4.91844178 4.67913818.24121094.06808471-.21859741.06051636c.30528259.99102783 2.33296203 8.37097168-3.81416321 9.96725464-6.5956192 1.7135315-8.58184052-23.59231567-8.51776886-26.19100952.06407165-2.50030518 12.78420257-.7829895 13.76789093-.64678955l9.7276001-.69226074-2.3631134-5.19354248c-10.24395753-7.69012452-7.86198426-18.96615601-7.10820008-20.55108643.44850159-.9267273.46357727-5.43185425.3957367-9.02914429-1.39450074-1.22180175-3.52017213-4.70559692-4.16842652-5.79501342-.1319275.26101684-.19599915.4274292-.19599915.4274292-.64178466-1.2338562-.93504333-2.62042237-.8480072-4.00958252-.1620636-3.81289673 2.0993042-7.59553528 2.0993042-7.59553528 1.34635925-2.74778748 2.2835083-5.6790619 2.78146362-8.70005799-.09422302.12103272-.18467712.25341797-.28266906.37826538-.4440918.61911011-1.02955628 1.1223755-1.70732117 1.46765137-.7047577.27972412-1.46533203.38858032-2.21990967.31774902-.36309814.01641846-.72688293.01010132-1.08921814-.0189209-2.1683197-.17074584-4.28044128-.7765808-6.21118164-1.7816162-.40193176-.21905518-.83179474-.38195801-1.27767181-.4841919-.22200012.05505371-.41632843.1895752-.54649353.37826538-.13738251.25308228-.24248505.52250672-.31282044.80192566-.46357727 1.22935486-1.88069153 1.60005188-3.26389313 1.51306152h-.1809082c-.60424805.0196991-1.20824432-.04652404-1.79400635-.19670105-3.73239135-.97979736-6.90192413-3.4513855-8.77029419-6.83901977-.23678588-.51254273-.541008-.99090576-.90454101-1.42227173-.54649353-.55981445-1.32289124-.8548584-1.96360779-1.31634521-1.74124145-1.26339722-2.22366333-3.71833802-1.76385498-5.80256653.45980835-2.08424378 1.68847656-3.9150238 2.8493042-5.71556092 1.16082764-1.8005371 2.29904938-3.70700073 2.55156708-5.82905578.22608185-1.93003845-.30242157-3.82051087-.83176422-5.713974-.22072602-.78955078-.44160462-1.57963562-.6079712-2.37330628-1.2814331-6.14300537 1.07038117-13.01605224 6.16973877-16.73439025 1.4058075-1.02508545 2.96990967-1.8043213 4.45863343-2.70837403 2.47618866-1.4979248 4.76015472-3.39302063 6.24511718-5.85173034.79901124-1.32771302 1.35681153-2.80293274 2.28396607-4.04742432 1.52500915-1.94996643 3.81289673-3.14630127 6.27902222-3.2833252h.91963195c1.14241028-.0596466 2.28442383.12471009 3.35057068.54090882 2.58547974 1.02131653 4.46994019 3.23794555 6.20742798 5.39404297.4064331.42129516.69389343.9434967.83291626 1.51306152.03768921.26469421.03768921.533432 0 .79812622 5.12200928 1.13484192 8.77783203 5.678833 8.80422974 10.94317627-.0005951 1.01547241-.1401062 2.0260315-.41459656 3.00341797 1.07414246-.17779541 2.25004578-.37069702 3.5428009-.57496643 8.24639893-1.30879212 12.02664185-3.62376404 13.72265625-5.24273682 2.29527283-2.1825714 4.59432984-4.35758972 6.97628784-6.4493866 3.3543396-2.94668579 7.06295777-6.60449218 7.60568238-8.79464721 1.02514648-4.1306305 2.49880981-5.64369202 2.49880981-5.64369202.8282013.12669373 1.61981201.42979431 2.32165528.88891602l2.73623657-2.66674805s7.36447143-20.99365234 14.66488647-15.59960937c1.85055542 1.36553955 2.16714478 3.26441955 1.6055603 5.33731079 1.74502564 6.61204528-1.15704345 22.12086486-1.15704345 22.12086486l.64447021 5.94630433c.41616822 3.84443664 1.18066407 7.64279174 2.28396607 11.34791565.362854 1.21551513.5903778 2.46765136.67842102 3.73345947.25628662 4.0512085 2.17843628 3.78263855 2.17843628 3.78263855 3.03314209.47062683 5.96443176 1.45555115 8.66853332 2.91264343.33543396.18154907.64071656.3555603.92338562.518219-.08473205-.34822083-.21128845-.68481446-.37689209-1.0024109 0 0 6.48631287 1.74002076 11.10325623 1.79296876 2.83059692.01730346 5.62231445.66317749 8.17480469 1.8913269.77597045.36854553 1.5122528.815979 2.19728088 1.33526611-.14231873-.77485656-.2142334-1.56109619-.2148285-2.34901428-.00091552-3.58291626 1.45089723-7.01194763 4.0214386-9.49819946.06030274-.06053162.12060548-.11347962.18090821-.17022705-.53518677-.62034607-1.23620605-1.33148194-1.43972778-2.02748108-.03056336-.10791016-.05323792-.2178955-.06784058-.32910156v-.69978333c0-.01625061-.00123596-.03085327-.00248718-.045578-.0025177-.02990723-.00508118-.06019593.00248718-.10572815.01130676-.06808472.03768921-.13995361.03768921-.20805359l.03392029-.16264343.05653381-.20048523c.01507568-.05673218.03392029-.0983429.0527649-.16642761.0188446-.06809998.04522704-.13240052.06784057-.19670105l.06784058-.17401124.07914734-.18154907c.02638244-.06053161.06407165-.12861633.08668518-.18157959.02261352-.052948.04522705-.09077453.07914733-.1588745.0339203-.06808473.06784058-.13616944.10552979-.20046998l.05653381-.09457397c.35726929-.61236573.78897095-1.17778016 1.28520203-1.68327332l.23744202-.23072815c.12060547-.11727905.2525177-.2307434.37689209-.32531738 1.20228576-.92674256 2.70233154-1.40713501 4.02522277-2.0615387 1.3229065-.65438843 2.54779053-1.50170898 3.9008484-2.09179687 1.35302734-.5900879 2.91336059-.90405274 4.31539916-.42744446 3.00759888 1.02131653 4.1458435 5.18600464 7.2401123 5.91604614.5201111.12104797 1.05905152.13240051 1.58670045.21562195 2.0258789.37246704 3.79577636 1.59799194 4.86193847 3.36654663 1.03405762 1.74906921 1.56866455 3.74998474 1.54525757 5.78364563.04367066 1.12893677-.1211853 2.25622559-.48617553 3.32495117-.91586304 2.48518372-3.20736695 4.17980957-4.7564087 6.33590698-1.32937622 1.86180115-2.09851074 4.06736756-2.21612548 6.35482789-.02261353.21939086-.02261353.438797-.02261353.65818786l-.7876892-.48417663c.06405639.63548278.15075683 1.2671814.26757812 1.8913269l.05651855.29504395c.05279541.04159545 5.34814453 4.36894226 8.55169678 4.728302 3.20361328.35934448 18.06072998 18.89425659 18.06072998 18.89425659s-.37313843.11727905-.97241211.34423828l.4296875.37826538 5.53652954 4.70181275s.87063599 1.37687683 2.26135254 1.28231811c1.39071655-.09457397 8.83813476.52200317 8.83813476.52200317l1.40579224.22695923.3768921.06051636zm-174.72740173 6.15435791l.02261352 1.41848755-.09799194.04537964c.03015137-.4992981.0527649-.99102783.07537842-1.46386719zm8.19364929 107.33990479c.59703064.3347168 1.2290039.60235595 1.88446045.79812622l-1.88446045-.79812622zm92.48944092 19.8248291v-.55227661c-.14457703.15548706-.14457703.39675903 0 .5522766z"/>
    <rect width="11.176" height="11.154" x="236.718" y="77.063" fill="rgb(255,117,144)" rx="0" ry="0"/>
    <path fill="rgb(142,83,98)" fill-rule="evenodd" d="M222.92611513 208.82324748c-.94848987 4.9400904-2.35448662 8.77979988-4.9581843 11.04255501-2.6036977 2.26275513-6.26003316 8.33034851-6.26003316 8.33034851-.06323266 8.07075161-2.10899512 10.5233612-2.10899512 10.5233612l-2.10899513.5811871h-5.20739537s-.92989203-2.7122065-1.11587043-4.32403206c-.06323266-.53856672.30500458-1.44134403.81830498-2.4099892 1.86142246-3.55061137 3.01880757-7.45470878 3.40340483-11.48038263l.24177193-2.38286713c-.43890904-14.78927455 5.20739537-19.58988004 7.57676027-20.95760703.6642974-.38605866 1.10482604-1.08669465 1.17910309-1.87529706l.4203112-4.22716755 14.00789354.71679743s-.29756545 1.2863608.2343328 4.26203878c.10786747.61605833.25293063 1.30185911.44634817 2.06515151 1.11587044 4.45189323-6.50924421 9.81043835-6.5687573 10.13590312z"/>
    <path fill="rgb(142,83,98)" fill-rule="evenodd" d="M247.64064561 200.01791306c-.49015352 2.1056469-1.16690907 4.16402416-2.02233998 6.15102252-.74435981 1.77644949-1.15583974 3.67315093-1.21416283 5.59663851v.19233731c-.18469594 5.70076635-1.37520385 11.32500113-3.51727797 16.61643484-2.09822516 5.21950654-4.8794169 12.01165342-5.71415386 13.4409836-1.38869874 2.3872454-.56913883 6.41124359-.56913883 6.41124359l-8.0438288-.56569797.14038758-13.45229756c-.8385312-9.60555142 2.24999551-18.4794668 3.92326367-22.4883797.6760989-1.60336303 1.06146404-3.31297733 1.13827766-5.04979715l.37942589-8.92294254.11762202-2.63992383s14.22088224-2.01011343 15.41986804 1.19550837c.33010052.84854694.25042108 2.11193906-.03794259 3.51487z"/>
    <g opacity=".1">
      <path fill="rgb(0,0,0)" fill-rule="evenodd" d="M228.59042553 198.74125874l-14.22340425-.76542135.40730985-4.30450872 13.58901015.72991211s-.2991745 1.30595086.22708425 4.34001796z"/>
    </g>
    <g opacity=".1">
      <path fill="rgb(0,0,0)" fill-rule="evenodd" d="M247.64953298 199.75524476l-14.99527766-1.96846998.1137674-2.50988885s13.75484599-1.91110108 14.91453951 1.1366211c.32295263.80674999.24588439 2.00791108-.03302925 3.34173773z"/>
    </g>
    <path fill="rgb(189,210,232)" fill-rule="evenodd" d="M254.93522088 171.67767489l-6.138543 27.06358385-18.16753115-2.45448995v-9.31573342l-1.57128658 9.57251083-21.802541-1.0724233 1.12771764-20.95756808c1.1683484-4.18216613 1.98567236-8.45535075 2.44338821-12.77467618.42477365-4.73527754 2.65765457-16.41487359 3.73650444-21.90160267.37590588-1.80877029.58641317-2.94916408.58641317-2.94916408s37.34249006 7.80150191 39.78587827 10.6336057c.41725553.48334572.69166682 1.51045537.86082447 2.87364132.81947481 6.61579447-.86082447 21.28231598-.86082447 21.28231598z"/>
    <g opacity=".1">
      <path fill="rgb(0,0,0)" fill-rule="evenodd" d="M211.31914894 173.3916084s14.70349272-7.43681435 18.28723404-5.86601406l-18.28723404 5.86601405z"/>
    </g>
    <g opacity=".1">
      <path fill="rgb(0,0,0)" fill-rule="evenodd" d="M217.41489362 151.08391608s11.8275643 8.78280832 12.19148936 11.15384616l-12.19148936-11.15384616z"/>
    </g>
    <g opacity=".1">
      <path fill="rgb(0,0,0)" fill-rule="evenodd" d="M216.39893617 180.50202884s8.4717742-.20029354 11.17553192 1.00146766l-11.17553192-1.00146766z"/>
    </g>
    <g opacity=".1">
      <path fill="rgb(0,0,0)" fill-rule="evenodd" d="M231.21593837 171.36363636s5.13678108 13.22152056 2.9109959 16.8379102c-2.22578517 3.61638966-4.5205513-.84623517-4.5205513-.84623517l1.6095554-15.99167503z"/>
    </g>
    <path fill="rgb(73,68,87)" fill-rule="evenodd" d="M225.64701387 242.34265734s-3.75153682.60596036-3.06943921 10.27955511c.6820976 9.67359475 1.705244 11.37173517 3.06943921 11.49147584 1.36419521.11974067 8.01464684 1.87593716 7.67359804-1.69451191-.3410488-3.57044908-.6820976-11.48784733-.2285027-12.69976805.45359491-1.21192073 1.23800715-4.40137676-.4808788-5.18876238l-.3717432 1.86505165s-3.63899071-3.57044907-5.79782963-.96881087c-.09271893-.63422848-.24232681-1.25754951-.44677393-1.86142315-.21486074-.5660468-.6855081-.85995572-.34786978-1.22280624z"/>
    <path fill="rgb(142,83,98)" fill-rule="evenodd" d="M302.75531915 117.72368453s-.9480075.52770213-2.33992329 1.18639416c-2.14806462 1.0179786-5.34947091 2.35781806-7.71948967 2.55617418-3.90488805.32934602-5.12751678.70360285-9.59293308-2.47758024-3.42712237-2.44015457-9.16407254-5.8421492-11.66199708-7.29426571l-1.08719908-.63997919-.1090961-.06362366v-.04491082l2.07282593-5.66624848 7.33577236-3.88104337 1.82077631 1.55316586 5.42094768 4.62207191s.84643527 1.35480974 2.2120175 1.26124553c1.36558224-.0935642 8.65244945.51273187 8.65244945.51273187l1.37686804.2245541 2.90045153.47904875.7185295 7.6722651z"/>
    <g opacity=".1">
      <path fill="rgb(0,0,0)" fill-rule="evenodd" d="M302.75531915 118.489474s-.94589925.51635164-2.33471958 1.16087565c-1.46764527-.73241365-3.29187954-2.10568925-2.58996224-4.36518538.63435307-2.03244789.80701722-3.61812345 1.32876324-4.76068875l2.89400128.46874474.7019173 7.49625375z"/>
    </g>
    <path fill="rgb(142,83,98)" fill-rule="evenodd" d="M301.35295373 108.74975538s8.0669893-2.43375064 7.46613769 7.78800206c-.60085162 10.2217527-6.81706958 4.62607322-6.81706958 4.62607322s-5.28526886-1.46025039-4.17258068-5.3075234c1.11268818-3.84727302.79000861-6.17977963 3.52351257-7.10655188z"/>
    <path fill="rgb(142,83,98)" fill-rule="evenodd" d="M216.39893617 76.39595957L207.427826 80.0473625l-.13856525.0575326-.09897518-.04602608-.55822-.27232102c-2.31997818-1.11996812-10.29341856-4.9516399-15.3094806-7.2260957-5.9385107-2.6848551-5.01606204-5.3697102-5.01606204-5.3697102l-.85514554-28.12577485-1.52025874-5.05136308s-1.07289093-17.12170448 7.52211356-21.41363712c8.59500449-4.29193264 3.03655847 24.80039005 3.03655847 24.80039005l.6651132 6.04475946c.4295642 3.86692803 1.21795574 7.6884851 2.35560925 11.41830516.37151026 1.22622683.6051287 2.48776384.69678525 3.76263264.26525348 4.08865076 2.24475705 3.81632974 2.24475705 3.81632974 3.12660296.47564557 6.14527165 1.46950928 8.92360208 2.93799857 1.0317995.52774235 2.01929884 1.13305049 2.95341932 1.81035944l4.06985934 9.20521746z"/>
    <path fill="rgb(142,83,98)" fill-rule="evenodd" d="M246.23025217 89.23076923L238.75 88.51035288s2.20462448-3.05456533 3.1754328-6.02628278c.13731131-.4074478.24711244-.82249814.32875979-1.2427182.22433021-1.17788074.16631378-2.2693115-.4099828-3.05816741-2.18915343-3.0005341 13.02275547-7.20416351 13.02275547-7.20416351-.18486726 1.66064478-.24045036 3.33157197-.16631378 4.99968947.04344564 1.16076774.1726768 2.31737096.38677623 3.46160057.4602637 2.3305469 1.37692335 4.52421469 3.12515189 5.6480642 4.77668636 3.06176948-11.98232743 4.14239401-11.98232743 4.14239401z"/>
    <g opacity=".1">
      <path fill="rgb(0,0,0)" fill-rule="evenodd" d="M246.22834258 89.23076923L238.75 88.41003s2.20406167-3.47993434 3.17462216-6.86548367c.8622908 1.30087168 1.16003246 1.2721458 2.370333 1.53067867 0 0 7.54794452 1.18596819 10.7960354-4.99830192.46014622 2.65509141 1.37657186 5.15424237 3.1243541 6.43459557 4.7677334 3.48814173-11.98700208 4.71925058-11.98700208 4.71925058z"/>
    </g>
    <g opacity=".1">
      <path fill="rgb(0,0,0)" fill-rule="evenodd" d="M271.43149613 113.90258257c-.00854395.22639964.00147444.45312974.02995118.67783701l-1.12316904-1.32901752-.09359742-.11043412 2.06288713-5.7654227 7.30059874-3.94897181 1.81204605 1.58035034c-2.59452048 1.00913937-9.87265584 4.21172886-9.98871664 8.8956588z"/>
    </g>
    <g opacity=".1">
      <path fill="rgb(0,0,0)" fill-rule="evenodd" d="M216.39893617 76.54022846l-8.28446068 3.5202932h-.21935907l-.63979727.04437344s.0475278-.10723582.12430347-.30691631c.69098105-1.69728423 3.89727939-9.98402484 2.5116613-13.88888788.95282548.50879287 1.86474154 1.09236641 2.72736437 1.74535545l3.78028788 8.8857821z"/>
    </g>
    <g opacity=".1">
      <path fill="rgb(0,0,0)" fill-rule="evenodd" d="M256.0212766 151.08391608c-3.34935302-.31369749-36.85807295-3.55391461-39.98337627-8.71205438-.49402057-.84039844-1.05283671-1.63721643-1.67087905-2.38251259.37974524-1.90203922.59240257-3.10123722.59240257-3.10123722s37.7238921 8.20378502 40.19223615 11.18192576c.42151721.50032765.69873124 1.57642917.8696166 3.01387843z"/>
    </g>
    <path fill="rgb(255,117,144)" fill-rule="evenodd" d="M245.60724625 83.04273851s7.46568037 1.09709665 10.62147227-4.66266078c0 0 5.27100494 4.29821429 8.42301292 4.66641796 3.15200798.36820367 17.78443877 18.65815747 17.78443877 18.65815747s-11.73016174 3.75718032-10.97337711 9.76866883l-5.55101526-6.38720654s-2.77361566-.12774413-5.16883901 7.51436064c0 0-2.90226905 4.38087225-2.52387674 18.28243943.37839232 13.90156718-.88165409 17.15904252-.88165409 17.15904252s-36.83270788-3.1297312-40.10958532-8.2657967c-3.27687745-5.1360655-3.78392315-2.63002623-3.78392315-2.63002623s-.5070457-9.76866883 2.89848513-17.6587475c3.40553083-7.89007867 2.6487462-30.55714754 2.6487462-30.55714754s.37839232-11.147554-10.71985426-10.14438686c0 0 4.66557723-10.77183598 2.52387673-14.90473433 0 0 6.38347835 1.72078859 10.93175396 1.77338911 2.79163835.02154354 5.54299878.66344092 8.05218845 1.87859016 1.36599626.66502092 2.62604267 1.50287213 3.34120414 2.5022821 2.1417005 3.00574425 5.67588472 1.63061625 5.67588472 1.63061625.8907876 2.75048592 1.99130963 5.42959301 3.29201313 8.01406563.147573.27427416.295146.54479114.44650293.80403658.21946754.37571804.44650293.75143607.67353832 1.05952485.90814156 1.28871285 1.16544833 1.25489823 2.39900727 1.49911495z"/>
    <g opacity=".1">
      <path fill="rgb(0,0,0)" fill-rule="evenodd" d="M253.82551264 75.3649428c-.37879638.58738166-.80048037 1.1403287-1.2609254 1.65343-2.34023411 2.62300426-5.55162596 4.10178796-8.90484035 4.10050637-.42942415.00024766-.8585873-.02312448-1.28585895-.07002762.2065923-1.27216849.15316326-2.45096681-.37756523-3.30296956-2.01605585-3.24072279 11.993039-7.78084702 11.993039-7.78084702-.17381525 1.79329496-.22857465 3.59797827-.16384907 5.39990783z"/>
    </g>
    <path fill="rgb(142,83,98)" fill-rule="evenodd" d="M257.03713859 67.43011756c0 7.56009536-6.1405838 13.68876356-13.7153778 13.68876356-7.574794 0-13.71537781-6.1286682-13.71537781-13.68876356 0-7.56009535 6.1405838-13.68876355 13.7153778-13.68876355 3.64169726-.01357584 7.138166 1.42426912 9.71325278 3.99435903 2.57508679 2.57008991 4.01572726 6.05977387 4.00212503 9.69440452z"/>
    <g opacity=".1">
      <path fill="rgb(0,0,0)" fill-rule="evenodd" d="M262.11702128 96.34423122l.31785151 9.11031423s4.61326162-3.27535635 4.75894356-6.38733389c.14568195-3.11197754-5.07679507-2.72298034-5.07679507-2.72298034z"/>
    </g>
    <g opacity=".1">
      <path fill="rgb(0,0,0)" fill-rule="evenodd" d="M232.65425532 105.45454545s9.61883884 13.70794223 15.21525417 15.09870828c5.59641532 1.39076606-13.11659842-10.65406688-15.21525417-15.09870828z"/>
    </g>
    <g opacity=".1">
      <path fill="rgb(0,0,0)" fill-rule="evenodd" d="M242.81382979 109.51048951s6.50668075 6.31086573 11.17553191 7.0979021l-11.17553191-7.0979021z"/>
    </g>
    <g opacity=".1">
      <path fill="rgb(0,0,0)" fill-rule="evenodd" d="M222.49468085 125.73426573S232.83897485 136.2495475 238.75 136.8881119l-16.25531915-11.15384616z"/>
    </g>
    <g opacity=".1">
      <path fill="rgb(0,0,0)" fill-rule="evenodd" d="M256.02127489 68.3041411c.00171208 3.27632179-1.28394797 6.42205612-3.57971555 8.75879596l-1.37461077-.85582675c-.53175971-.27690585-.99051563-.6756854-1.33881362-1.16378115-.45462387-.7591434-.3221744-1.7116535-.28637724-2.59612717.07517402-1.87279244-.44030501-3.89956207-1.90440867-5.07050495-2.37335141-1.90143935-6.17858904-.84866502-8.59131732-2.71429572-.58100614-.49353063-1.0927532-1.0632579-1.52137911-1.69374918l-2.26238023-3.03299272c-.13602919-.17904325-.3006961-.3580865-.47610217-.56935754 3.60164228-3.54278904 8.9777962-4.57558236 13.63514798-2.61939856 4.65735177 1.9561838 7.68487167 6.51869346 7.6784784 11.57156124l.0214783-.01432346z"/>
    </g>
    <path fill="rgb(54,33,51)" fill-rule="evenodd" d="M235.36398495 51.48769346c1.2156698-.9162734 2.6993307-1.39932968 4.06647372-2.07407495 1.36714302-.67474527 2.57504496-1.53351198 3.94218799-2.10857897 1.36714302-.575067 2.94790215-.91243963 4.36553625-.43321714 3.04111645 1.0312868 4.19075945 5.22544207 7.31732234 5.96152782.52821435.12268096 1.07196442.1341823 1.6040627.21469168 2.05432712.38442227 3.84313096 1.61971918 4.91317025 3.39289525 1.04361498 1.76884847 1.58060849 3.78440115 1.55357163 5.8311793.0432223 1.13596013-.12393566 2.2701701-.493259 3.3468899-.9243751 2.5034583-3.24308075 4.21715794-4.80830416 6.38324362-1.48165739 2.07285322-2.26809411 4.55186178-2.24879493 7.08865912l-3.79071475-2.32710443c-.57779022-.2952438-1.07579864-.72241734-1.45258947-1.24597848-.49325899-.81276135-.34955361-1.83254682-.31071432-2.77949046.0815625-2.00506692-.47772328-4.17498637-2.06236633-5.42863241-2.5789289-2.03573715-6.70754548-.90860585-9.32142973-2.9060052-.63038154-.52838848-1.18561819-1.13835532-1.65066985-1.81337792l-2.45464316-3.24721161c-.53209828-.70541552-1.55357162-1.58335112-1.78660736-2.44211783-.51656257-1.84788194 1.25062515-4.37434292 2.61776818-5.41329729z"/>
    <g opacity=".1">
      <path fill="rgb(0,0,0)" fill-rule="evenodd" d="M252.8725672 75.31913219c-.537174-.29662102-1.00017454-.72578717-1.35047857-1.25179056-.45858496-.8165526-.32498147-1.84109503-.28887242-2.79245585.07582901-2.01441988-.44414134-4.19446128-1.9210016-5.45395516-2.39403019-2.04523319-6.23242249-.9128442-8.66617264-2.91956075-.58606838-.53085323-1.10227424-1.14366536-1.53463473-1.82183671l-2.28209213-3.26235878c-.49830493-.70870603-1.4443621-1.59073692-1.66101642-2.45350949-.39358868-1.48674201.60302118-3.42412862 1.66823823-4.6643642-1.19520964 1.17860896-2.50596826 3.41642531-2.0618269 5.0841955.23109793.86277257 1.1663224 1.74480345 1.66101641 2.45350949l2.28209213 3.26235877c.4323605.67817135.94856636 1.29098349 1.53463474 1.82183672 2.42291743 2.00671655 6.26130973.87432756 8.66617264 2.91956074 1.47324935 1.25949388 1.9932197 3.43953528 1.9173907 5.45395516-.03610906.95136083-.16971255 1.97590325.28887242 2.79245586.35030402.52600338.81330455.95516953 1.35047856 1.25179055l3.52424354 2.3379596c0-.22339647 0-.44679294.02166544-.66633775l-3.1487094-2.09145314z"/>
    </g>
    <path fill="rgb(73,68,87)" fill-rule="evenodd" d="M199.9014962 233.21678322s-3.41145664.81959437-2.7109522 11.76527724c.70050445 10.94568286 1.75126111 12.84304384 3.15227 12.97827691 1.4010089.13523307 8.23092723 2.11865146 7.880675-1.91375286-.35025222-4.03240432-.70050444-12.97417895-.23466898-14.34290155.46583545-1.3687226 2.31516718-5.04460337.54989598-5.93386327l-1.42552654 2.18012104s-3.73719121-4.03240432-5.95428778-1.0941585c0 0-2.07349315-2.68417157-1.25740548-3.63899901z"/>
    <g opacity=".1">
      <path fill="rgb(0,0,0)" fill-rule="evenodd" d="M204.2074468 240.31468531c.82290604.21112653 1.59121167.46870089 2.41021768.67982741.80655006.22864004 1.70665606.34337697 2.61691918.33357991.38644708-.0039189.76061997-.07414852 1.06860783-.2005702"/>
    </g>
    <g opacity=".1">
      <path fill="rgb(0,0,0)" fill-rule="evenodd" d="M228.59042553 250.45454545c.44684969.23175463.79360504.5279975 1.2976515.71944697.71495949.27004451 1.63010765.28616657 2.50235823.29221235.1451833.00740249.29149183-.00290751.4289757-.03022887.15579883-.04776648.28744047-.1171232.38250333-.20152576l.46829848-.34057853"/>
    </g>
    <path fill="rgb(255,193,199)" fill-rule="evenodd" d="M164.79133342 80.41032514s-1.78793752-15.73224465 5.16515284-11.86003253c6.95309036 3.87221211 2.165391 10.75368621 2.165391 10.75368621l-1.63298294 4.85686034-5.6975609-3.75051402z"/>
    <path fill="rgb(255,193,199)" fill-rule="evenodd" d="M175.7606383 30.6595117l3.83313802-3.79141392s7.34812558-21.30064215 14.63108781-15.82973225c7.28296224 5.4709099-9.23019635 19.30455152-9.23019635 19.30455152l-4.37744361 5.14659344-4.85658587-4.8299988z"/>
    <path fill="rgb(255,83,116)" fill-rule="evenodd" d="M121.08357592 111.42896445l-.18463975 4.0704721s3.38629293 5.74823952 4.80063338 6.16857953c1.41434045.42034002 1.29247822-12.15752657 1.29247822-12.15752657l-5.90847185 1.91847494z"/>
    <g opacity=".1">
      <path fill="rgb(0,0,0)" fill-rule="evenodd" d="M121.08357592 111.42896445l-.18463975 4.0704721s3.38629293 5.74823952 4.80063338 6.16857953c1.41434045.42034002 1.29247822-12.15752657 1.29247822-12.15752657l-5.90847185 1.91847494z"/>
    </g>
    <path fill="rgb(255,193,199)" fill-rule="evenodd" d="M125.9787234 107.48251748l.26362772 15.20979021h18.02360633l-1.35690734-8.86145105-16.9303267-6.34833916z"/>
    <path fill="rgb(87,89,136)" fill-rule="evenodd" d="M131.01894216 148.04195804l.83786661 5.0278521 10.49070778 22.75923449s4.76078126 7.16648086.8996448 13.20141211c-3.86113647 6.03493125-7.84969044 15.46451134-8.49450023 21.1826087s-5.72606538 11.3154961-5.72606538 11.3154961l11.06987825 4.59031958s.7722273-8.98827574 3.86113647-13.20141212 12.99658534-22.75546265 12.99658534-22.75546265 3.1545485-2.76852471 2.44796052-11.00243404c-.70658797-8.23390933-.6448098-14.01989966-.6448098-14.01989966l-1.09270161-13.13729097-26.64570275-3.96042364z"/>
    <g opacity=".1">
      <path fill="rgb(0,0,0)" fill-rule="evenodd" d="M131.01894216 148.04195804l.83786661 5.0278521 10.49070778 22.75923449s4.76078126 7.16648086.8996448 13.20141211c-3.86113647 6.03493125-7.84969044 15.46451134-8.49450023 21.1826087s-5.72606538 11.3154961-5.72606538 11.3154961l11.06987825 4.59031958s.7722273-8.98827574 3.86113647-13.20141212 12.99658534-22.75546265 12.99658534-22.75546265 3.1545485-2.76852471 2.44796052-11.00243404c-.70658797-8.23390933-.6448098-14.01989966-.6448098-14.01989966l-1.09270161-13.13729097-26.64570275-3.96042364z"/>
    </g>
    <path fill="rgb(196,116,123)" fill-rule="evenodd" d="M129.71444401 220.03496503s-11.98100774 3.60689889-8.00817276 9.53721281c3.97283497 5.93031392 16.86403992 17.20332266 22.07130543 16.81673113 5.20726551-.38659152 3.1251406-4.19065208 3.1251406-4.19065208l-4.36347756-4.25250672s-.78128515-9.01918017-.45314538-11.65960025c.32813976-2.64042009-3.71110446-3.8659152-4.2345655-2.31954912-.52346106 1.54636608-8.13708483-3.93163577-8.13708483-3.93163577z"/>
    <path fill="rgb(87,89,136)" fill-rule="evenodd" d="M135.0529013 116.6083916l-9.47104025 1.02223156c-1.75450914.18898979-3.06833156 1.65710787-3.02325267 3.37830427.10129455 3.69371401.1675256 9.56869534-.3623228 10.64032842-.77918884 1.58464891-3.17909044 12.85959692 7.20749669 20.52063338l14.09163002 4.37013488-22.59647612 1.58464891.71685373 12.22497733 3.50634974-1.90005865 42.85538574 1.90005865s12.14365794-1.20463718 3.89594416-14.06043398c-8.24771378-12.8557968-25.77556655-25.46078586-25.77556655-25.46078586l-.19479721-10.00950894-1.30124535-2.91088985-9.54895913-1.29964011z"/>
    <g opacity=".1">
      <path fill="rgb(0,0,0)" fill-rule="evenodd" d="M149.34574468 157.16783217c2.91501194-1.35198135 6.22860509-1.35198135 9.14361702 0h-9.14361702z"/>
    </g>
    <path fill="rgb(196,116,123)" fill-rule="evenodd" d="M123.7683546 158.88654286s-12.96601472-1.94620388-13.02753363.62987606c-.0615189 2.57607993 1.80937967 27.65797092 8.02278946 25.9607001 6.21340978-1.69727082 3.55724043-9.99503927 3.55724043-9.99503927l4.64648699-4.65052204s.48129499-2.57607993-2.59465045-2.32714688l-.6043328-9.61786797z"/>
    <path fill="rgb(255,83,116)" fill-rule="evenodd" d="M146.82256314 87.65223818l5.17164808 6.00297774s2.2534653 2.84742358 4.93059668-1.48496666c2.67713139-4.33239025 7.66981707-12.06535416 7.66981707-12.06535416s5.54052976 4.94865142 7.0014473 3.96114858c1.46091754-.98750283-13.45139822 20.6076249-13.45139822 20.6076249s-4.747982 7.11299032-11.81151829-1.29934584l-2.06719831-.99121525 2.55660569-14.73086931z"/>
    <g opacity=".1">
      <path fill="rgb(0,0,0)" fill-rule="evenodd" d="M146.82256314 87.65223818l5.17164808 6.00297774s2.2534653 2.84742358 4.93059668-1.48496666c2.67713139-4.33239025 7.66981707-12.06535416 7.66981707-12.06535416s5.54052976 4.94865142 7.0014473 3.96114858c1.46091754-.98750283-13.45139822 20.6076249-13.45139822 20.6076249s-4.747982 7.11299032-11.81151829-1.29934584l-2.06719831-.99121525 2.55660569-14.73086931z"/>
    </g>
    <ellipse cx="130.551" cy="52.22" fill="rgb(255,193,199)" rx="10.668" ry="10.647"/>
    <g opacity=".1">
      <path fill="rgb(0,0,0)" fill-rule="evenodd" d="M129.52989171 58.42633862s-9.6247029 4.57199594-8.4856848 12.57298883c1.13901809 8.0009929 1.32885444 18.09748392 1.32885444 18.09748392s4.37003276 6.47699425-1.42377262 18.85948324c0 0-3.7018088 6.28649442-1.23393627 10.85849036 0 0 2.73744016-7.23899357 9.81453925-1.90499831 7.0770991 5.33399526 18.47107677 7.81049306 18.47107677 7.81049306s-5.88492682-25.90797698-2.2780362-29.52747377c0 0 6.26459953-9.3344917.56950906-15.23998645-5.69509048-5.90549476-2.84754524-11.42998985-2.84754524-11.42998985l18.28883387-9.84122126s3.85747462.06095995 9.0476004-8.06576283c3.36005895-5.19339665 7.0598728-10.1572995 11.0750526-14.8589868 0 0-3.9258157-5.90549475-7.59345396-6.35126435 0 0-1.45794316 1.52399864-2.46787253 5.65403497-.53913524 2.19074806-4.20297677 5.8521548-7.51751943 8.80490218-2.35397073 2.09549814-4.62441346 4.2710062-6.89105947 6.47699424-1.67815333 1.61924857-5.41413268 3.9357265-13.56190878 5.24636534-13.4100397 2.1450281-14.29467709 2.83844748-14.29467709 2.83844748z"/>
    </g>
    <path fill="rgb(255,83,116)" fill-rule="evenodd" d="M129.52989171 56.3983666s-9.6247029 4.57199593-8.4856848 12.57298882c1.13901809 8.0009929 1.32885444 18.09748392 1.32885444 18.09748392s4.37003276 6.47699425-1.42377262 18.85948325c0 0-3.7018088 6.28649441-1.23393627 10.85849035 0 0 2.73744016-7.23899357 9.81453925-1.9049983 7.0770991 5.33399525 18.47107677 7.81049305 18.47107677 7.81049305s-5.88492682-25.90797698-2.2780362-29.52747376c0 0 6.26459953-9.33449171.56950906-15.23998646-5.69509048-5.90549476-2.84754524-11.42998985-2.84754524-11.42998985l18.28883387-9.84122125s3.85747462.06095994 9.0476004-8.06576284c3.36005895-5.19339664 7.0598728-10.1572995 11.0750526-14.8589868 0 0-3.9258157-5.90549475-7.59345396-6.35126435 0 0-1.45794316 1.52399864-2.46787253 5.65403497-.53913524 2.19074806-4.20297677 5.8521548-7.51751943 8.80490218-2.35397073 2.09549814-4.62441346 4.2710062-6.89105947 6.47699425-1.67815333 1.61924856-5.41413268 3.9357265-13.56190878 5.24636534-13.4100397 2.14502809-14.29467709 2.83844747-14.29467709 2.83844747z"/>
    <g opacity=".1">
      <path fill="rgb(0,0,0)" fill-rule="evenodd" d="M138.17021277 105.45454545s8.9168298 10.37844509 9.14360574 12.16783217c.00453552 0-1.3561201-11.15503908-9.14360574-12.16783217z"/>
    </g>
    <g opacity=".1">
      <path fill="rgb(0,0,0)" fill-rule="evenodd" d="M128.0106383 67.93706294s4.98643553 8.16793723 12.19148936 1.32172075c-4.02446908 1.8599141-8.43409227 1.38185188-12.19148936-1.32172075z"/>
    </g>
    <g opacity=".1">
      <path fill="rgb(0,0,0)" fill-rule="evenodd" d="M133.06510018 39.91157152c-.13981342-.57088404-.42943654-1.09611706-.8402046-1.52371539-1.7582059-2.15986656-3.66811543-4.37687245-6.28597512-5.40157105-3.5668314-1.30498398-7.58575549-.18402647-9.9151922 2.76554343-.94134033 1.24182804-1.50147672 2.71983197-2.31445247 4.04927365-1.50147673 2.46080035-3.82370887 4.357826-6.32098364 5.85868567-1.50536657.90280137-3.0924197 1.6837055-4.51220987 2.7084041-5.1618125 3.72167484-7.54628202 10.60124982-6.24707676 16.76086928.5718059 2.69697624 1.78154493 5.3558596 1.4547987 8.094738-.25283935 2.12558298-1.40812067 4.03022721-2.57896133 5.83582995-1.17084067 1.80560273-2.41947805 3.6340612-2.88625838 5.7139327-.46678033 2.07987151.02333901 4.54448116 1.78543476 5.80535564.64960263.4647332 1.43145969.7618577 1.98770625 1.31801381.36811062.43292137.67553197.91204801.91411148 1.4246739 1.87264394 3.38319368 5.08418368 5.8628555 8.8804958 6.85671924 1.67262951.4304496 3.91706494.27426877 4.5277692-1.31039523.0701197-.2798211.17597978-.54986989.31507673-.80375987.55235672-.7618577 1.76987542-.33521739 2.62563936.10285079 1.9481455.99730975 4.08260889 1.5973051 6.27430561 1.76370056.86927016.11226286 1.75341108.00878208 2.57118166-.30093379.69045057-.34335837 1.28469854-.84683693 1.73097706-1.46657606 2.04605378-2.6093626 2.63341903-6.01867579 2.98350428-9.29085459.22950033-2.12939225.38898361-4.2968774-.02722885-6.39960463-.66127214-3.37502959-2.75789379-6.52912044-2.4467069-9.9498615.33063606-3.65691693 3.36081838-6.64720838 3.82370887-10.28507887.2352953-1.90468053-.25045092-3.8277602-1.36533246-5.40538034-.41138699-.48716947-.76018788-1.02192486-1.03858624-1.59228258-.27165985-.5902377-.14835853-1.2830299.31118689-1.74846341.24631583-.16994022.51972634-.29866567.8090859-.38092885 2.50116461-.94089425 3.83537839-3.39407603 4.01431085-5.90439713.07001705-.95232212 0-1.82845847.2683987-2.75792486.42788196-1.43610175 1.72319738-3.0055286 1.50147672-4.53686257z"/>
    </g>
    <path fill="rgb(187,118,132)" fill-rule="evenodd" d="M132.04914273 39.91157152c-.13981342-.57088404-.42943653-1.09611706-.8402046-1.52371539-1.7582059-2.15986656-3.66811542-4.37687245-6.28597511-5.40157105-3.5668314-1.30498398-7.5857555-.18402647-9.9151922 2.76554343-.94134033 1.24182804-1.50147673 2.71983197-2.31445247 4.04927365-1.50147673 2.46080035-3.82370888 4.357826-6.32098365 5.85868567-1.50536657.90280137-3.0924197 1.6837055-4.51220987 2.7084041-5.16181249 3.72167484-7.54628201 10.60124982-6.24707676 16.76086928.5718059 2.69697624 1.78154493 5.3558596 1.4547987 8.094738-.25283935 2.12558298-1.40812067 4.03022721-2.57896133 5.83582995-1.17084066 1.80560273-2.41947805 3.6340612-2.88625838 5.7139327-.46678033 2.07987151.02333902 4.54448116 1.78543477 5.80535564.64960262.4647332 1.43145968.7618577 1.98770624 1.31801381.36811062.43292137.67553197.91204801.91411148 1.4246739 1.87264394 3.38319368 5.08418369 5.8628555 8.8804958 6.85671924 1.67262952.4304496 3.91706494.27426877 4.5277692-1.31039523.0701197-.2798211.17597978-.54986989.31507673-.80375987.55235672-.7618577 1.76987542-.33521739 2.62563936.10285079 1.94814551.99730975 4.0826089 1.5973051 6.27430562 1.76370056.86927015.11226286 1.75341107.00878208 2.57118165-.30093379.69045058-.34335837 1.28469855-.84683693 1.73097706-1.46657606 2.04605379-2.6093626 2.63341904-6.01867579 2.98350428-9.29085459.22950033-2.12939225.38898361-4.2968774-.02722885-6.39960463-.66127213-3.37502959-2.75789379-6.52912044-2.4467069-9.9498615.33063607-3.65691693 3.36081838-6.64720838 3.82370888-10.28507887.2352953-1.90468053-.25045093-3.8277602-1.36533247-5.40538034-.41138699-.48716947-.76018788-1.02192486-1.03858624-1.59228258-.27165984-.5902377-.14835852-1.2830299.3111869-1.74846341.24631582-.16994022.51972633-.29866567.8090859-.38092885 2.5011646-.94089425 3.83537838-3.39407603 4.01431084-5.90439713.07001705-.95232212 0-1.82845847.2683987-2.75792486.42788196-1.43610175 1.72319738-3.0055286 1.50147672-4.53686257z"/>
    <g opacity=".1">
      <path fill="rgb(0,0,0)" fill-rule="evenodd" d="M108.67786452 98.72100233c-.1387046.25582943-.2456525.52720412-.31853254.80825952-.36126252.94999223-1.30520651 1.3866822-2.35791771 1.4939394 1.46447278.14556332 3.02994368-.20302254 3.52328066-1.4939394.07288004-.2810554.17982795-.55243009.31853254-.80825952.09776856-.1407117.2318747-.2531194.38845432-.32560217-.59045056-.16854701-1.1964393-.16088579-1.55381727.32560217z"/>
      <path fill="rgb(0,0,0)" fill-rule="evenodd" d="M131.86081821 40.25817405c-.13579432-.57551658-.42553406-1.10462263-.83906133-1.53224553-1.75581351-2.17195805-3.66312421-4.4013753-6.27742177-5.43181042-1.13620184-.43746319-2.35742383-.61810334-3.57377973-.5286247.82585237.05125132 1.63848659.22961685 2.40841677.5286247 2.61429756 1.03043512 4.52160826 3.25985237 6.27742178 5.43181042.41352726.4276229.703267.95672895.83906133 1.53224553.22141896 1.53224553-1.06824938 3.12195027-1.49554913 4.53927739-.28357165.93466977-.20199624 1.81188034-.26803348 2.77336441-.18257353 2.5205439-1.5110873 4.97979798-4.0127331 5.93745144-.28896583.0827237-.56200432.2121698-.80798498.38306138-.45927573.46961428-.58095182 1.16827192-.30687891 1.76208236.27663336.57344658.62366228 1.11120687 1.03328848 1.60119658 1.11446557 1.58460475 1.60096386 3.51721067 1.3673592 5.43181042-.46614518 3.66589743-3.49608886 6.66909868-3.82239049 10.34265734-.31076345 3.44755245 1.78688987 6.61163947 2.44337766 10.00173271.41176158 2.11449884.25637985 4.2941181.0271918 6.43543124-.34960888 3.29049728-.93229036 6.72272727-2.97944461 9.34286713-.44410934.62315146-1.036286 1.12950923-1.72473717 1.47478632-.40242838.17394362-.83201188.27887691-1.27024562.31027972.82539812.09690779 1.66228272-.00970553 2.43560857-.31027972.68964698-.33614985 1.2856865-.83318575 1.7363908-1.44797202 2.04715426-2.62013986 2.62983573-6.05236986 2.97944462-9.34286714.22918805-2.14131313.38845432-4.3209324-.0271918-6.43543123-.6564878-3.39009324-2.75414112-6.5656721-2.44337766-10.00173271.33407071-3.6812199 3.3562453-6.68442114 3.82239048-10.34265735.23360466-1.91459975-.25289363-3.84720566-1.3673592-5.4318104-.4096262-.48998972-.75665512-1.02775002-1.03328848-1.60119659-.27407291-.59381044-.15239682-1.29246808.30687891-1.76208236.24598067-.17089159.51901915-.30033768.80798498-.38306138 2.50164581-.94999223 3.83015958-3.41690754 4.0127331-5.93745144.06603724-.96148407 0-1.83869464.26803349-2.77336442.41564612-1.44414141 1.70531445-3.0223543 1.48389549-4.56609168z"/>
    </g>
    <g opacity=".1">
      <path fill="rgb(0,0,0)" fill-rule="evenodd" d="M117.85106383 173.3916084c1.28448959.88280375 3.257555 1.22584743 5.07978723.8831886"/>
    </g>
    <g opacity=".1">
      <path fill="rgb(0,0,0)" fill-rule="evenodd" d="M143.25 238.28671329c-1.1391909.84019985-2.6245108 1.1821962-4.06382979.93570075"/>
    </g>
    <g opacity=".1">
      <ellipse cx="40.638" cy="246.906" fill="rgb(61,128,252)" rx="10.16" ry="2.535"/>
    </g>
    <ellipse cx="317.995" cy="281.381" fill="rgb(61,128,252)" rx="10.16" ry="2.535"/>
    <g opacity=".1">
      <ellipse cx="317.995" cy="249.948" fill="rgb(61,128,252)" rx="10.16" ry="2.535"/>
    </g>
    <g opacity=".1">
      <ellipse cx="68.069" cy="263.129" fill="rgb(61,128,252)" rx="10.16" ry="2.535"/>
    </g>
    <ellipse cx="351.521" cy="263.129" fill="rgb(61,128,252)" rx="15.239" ry="2.535"/>
    <g opacity=".1">
      <ellipse cx="133.09" cy="284.423" fill="rgb(61,128,252)" rx="34.543" ry="5.577"/>
    </g>
    <path fill="rgb(61,128,252)" fill-rule="evenodd" d="M358.1809482 259.3204719c.67971722-.55277311 1.17552478-1.2976616 1.42216352-2.1366218.18147399-.84874442-.181474-1.86354752-.99255162-2.17352374-.9110735-.34687815-1.88510736.28045468-2.62211397.91885808-.73700661.6384034-1.58511975 1.35799106-2.55174651 1.2251441 1.01123839-.91236172 1.46691753-2.2870807 1.19995046-3.62007941-.04196336-.27155408-.15717191-.5266497-.33331957-.73803862-.50738646-.5387682-1.42216351-.30628603-2.02954584.11808618-1.92584643 1.35061067-2.4628613 3.95588699-2.47397195 6.3028498-.19258464-.84505422-.0296284-1.72701037-.03333195-2.58313517-.00370355-.8561248-.24443436-1.84509654-.97773742-2.2989903-.45340745-.24874407-.96387517-.37590072-1.48142032-.3690193-.86663089-.02952155-1.8295541.0553529-2.42212223.68637591-.74071016.78601113-.54442197 2.09971987.09629232 2.95215447.6407143.8524346 1.6110446 1.40227338 2.50360035 2.00008466.7183157.42550654 1.33103251 1.00700175 1.7925186 1.70117901.0532962.09675776.09791214.1980164.13332782.30259584h5.42570194c1.2130733-.60912218 2.33801233-1.37871979 3.34430638-2.28791972z"/>
    <path fill="rgb(61,128,252)" fill-rule="evenodd" d="M325.67377347 277.55842286c.6786852-.5518625 1.17323442-1.2953103 1.41843525-2.13231063.18147083-.84703186-.17776734-1.8413736-.99253433-2.1691381-.91105762-.34617824-1.88507452.27988878-2.62206829.91700405s-1.58509213 1.35525097-2.55170205 1.22267207c1.01122077-.91052081 1.46689197-2.28246595 1.19992956-3.612775-.03992628-.2716014-.15537064-.52670783-.33331377-.73654945-.50367413-.53768109-1.42213873-.30566801-2.025807.11784791-1.92581287 1.34788548-2.46281838 3.947905-2.47392884 6.29013223-.19628477-.84334911-.03333137-1.7235257-.03703486-2.57792304-.00370348-.85439736-.2444301-1.8413736-.97772038-2.29435151-.45471728-.24295635-.9653785-.36355923-1.48139451-.34986099-.8666158-.02946197-1.82952223.05524121-2.42208003.68499098-.74069726.78442516-.54441249 2.09548316.09629064 2.94619777.64070313.8507146 1.61101653 1.39944393 2.50726022 1.99604898.71695863.42508955 1.32836514 1.00537947 1.78878387 1.69774646.05329529.09656253.09791044.19761685.1333255.30198527h5.42560742c1.21480483-.61435425 2.34090303-1.38854685 3.3479516-2.301717z"/>
    <path fill="none" stroke="rgb(83,84,97)" stroke-linecap="butt" stroke-linejoin="miter" stroke-width="2" d="M80.3766931 243.35664336s-5.45729756-17.78692977 1.02542815-30.87641005c2.7605099-5.47599694 3.59467903-11.66405095 2.3771289-17.63407625-.60073635-2.8280564-1.47055866-5.59724151-2.59852816-8.27273049"/>
    <path fill="rgb(61,128,252)" fill-rule="evenodd" d="M84.32230068 177.33095441c0 2.11125632-4.57179965 8.22848615-4.57179965 8.22848615s-4.56748256-6.11722983-4.56748256-8.22848615c-.05121518-1.3927933.80837867-2.69850797 2.24330493-3.40755828 1.43492625-.70905032 3.2177461-.70905032 4.65267235 0 1.43492626.7090503 2.2945201 2.01476497 2.24330493 3.40755828z"/>
    <path fill="rgb(61,128,252)" fill-rule="evenodd" d="M90.81615454 189.62321818c-1.27373366 1.85383206-8.52360135 5.0620965-8.52360135 5.0620965s.13217991-7.56666143 1.40591357-9.41671015c1.30143235-1.78804158 3.87332497-2.27257278 5.80142441-1.09295821 1.92809945 1.17961456 2.5116265 3.59463696 1.31626337 5.44757186z"/>
    <path fill="rgb(61,128,252)" fill-rule="evenodd" d="M92.46234083 210.29684463c-1.9014323 1.12916263-9.1538302.35072476-9.1538302.35072476s3.77736647-7.30961715 5.67879876-8.43450265c1.88960214-1.04102072 4.14164166-.1283903 5.08218044 2.05953425.94053877 2.18792454.2283714 4.8574155-1.607149 6.02424364z"/>
    <path fill="rgb(61,128,252)" fill-rule="evenodd" d="M88.91388305 226.23454693c-1.84511775 1.32714051-9.6692022 1.91230622-9.6692022 1.91230622s2.88152433-7.11377913 4.71093896-8.44474425c1.84401314-1.19834556 4.32876348-.77648084 5.64798001.9589227 1.31921654 1.73540355 1.00887686 4.1739335-.7054199 5.54291843l.01570313.0305969z"/>
    <path fill="rgb(61,128,252)" fill-rule="evenodd" d="M74.41823893 195.2236219c1.7533149 1.7269942 9.90622916 3.51763684 9.90622916 3.51763684s-1.99543934-8.2361075-3.75710335-9.9631017c-1.76219745-1.65237046-4.49899197-1.57587281-6.1691868.17243834-1.67019482 1.74831115-1.66499917 4.53117138.01171187 6.27302652h.00834912z"/>
    <path fill="rgb(61,128,252)" fill-rule="evenodd" d="M71.13296664 214.3573081c1.89675342 1.12289525 9.12767166.34583466 9.12767166.34583466s-3.76807146-7.29668433-5.66482489-8.41957958c-1.88941556-1.06311627-4.15545251-.15498684-5.09823973 2.04315359-.94278721 2.19814043-.21589694 4.87858379 1.63539296 6.03059133z"/>
    <path fill="rgb(61,128,252)" fill-rule="evenodd" d="M69.57547865 233.33164725c1.84511775 1.33152317 9.6692022 1.913108 9.6692022 1.913108s-2.88152433-7.11676173-4.71093895-8.44445868c-1.84401315-1.19884799-4.32876348-.77680639-5.64798002.95932476-1.31921654 1.73613115-1.00887686 4.1756835.7054199 5.54524241l-.01570313.02678351z"/>
    <path fill="rgb(168,168,168)" fill-rule="evenodd" d="M68.06914894 243.2933047s6.46901075-1.22690033 8.1968529-2.86156459c1.72784214-1.63466425 9.48611804-4.4926203 10.3481487-2.45019212.86203065 2.0424282 11.64497551 8.98884915 4.3139341 10.21574948-7.3310414 1.22690032-17.2519556 1.63466425-19.40703225.8191364-2.15507663-.81552787-3.45190345-5.72312917-3.45190345-5.72312917z"/>
    <g opacity=".2">
      <path fill="rgb(0,0,0)" fill-rule="evenodd" d="M90.93928572 246.45174382c-7.33099607 1.20335005-17.25184892 1.60328697-19.40691223.79987385-1.64465358-.60875355-2.78645906-3.53926483-3.23637578-4.90896033l-.22684877.05308898s1.29303798 4.80986091 3.4518821 5.61327403c2.15884413.80341312 12.07591617.39993693 19.40691224-.80341312 2.11725519-.35392648 2.72218524-1.16087887 2.49533647-2.1943442-.17013658.66184253-.90739508 1.18211446-2.48399403 1.4404808z"/>
    </g>
    <path fill="rgb(61,128,252)" fill-rule="evenodd" d="M320.08579672 225.1048951s2.23838441 2.605516-1.02965683 6.5228495c-3.26804123 3.9173335-5.9622421 7.24761056-4.8837478 9.70092673 0 0 4.93258528-7.30196763 8.95353764-7.40343418 4.02095236-.10146655 1.36744938-4.43916147-3.040133-8.82034205z"/>
    <g opacity=".1">
      <path fill="rgb(0,0,0)" fill-rule="evenodd" d="M320.02268937 225.1048951c.19801281.25220996.35459563.5277352.46512009.81843157 3.9596949 4.09215785 6.06714167 7.9127123 2.25974272 8.00686814-3.5439681.09053446-7.79590659 5.66745754-8.81670112 7.07617382.0335743.10913954.07341443.21671177.1193671.3223027 0 0 4.98872165-7.29707792 9.05543533-7.39847652 4.06671368-.1013986 1.37477973-4.44705295-3.08296412-8.8252997z"/>
    </g>
    <path fill="rgb(255,208,55)" fill-rule="evenodd" d="M325.10638298 227.39996436c0 .41258267-.23199028.74688879-.51197856.74688879-.27998827 0-.50397889-.32615231-.50397889-.74688879 0-.42073647.27998827-.21852204.55997655-.21852204.27998827 0 .4559809-.19406062.4559809.21852204z"/>
    <path fill="rgb(255,208,55)" fill-rule="evenodd" d="M325.8804568 229.67191177c-.39680352.35768706-.74355975.57348174-.7721582.4818429-.02859846-.09163883.26632308-.45228199.6631266-.80996905.39680352-.35768707.24129944-.09755102.2716853 0 .03038585.09755102.23414982-.02956092-.1626537.32812615z"/>
    <path fill="rgb(61,128,252)" fill-rule="evenodd" d="M307.7779496 225.1048951s-2.237641 2.605516 1.02931485 6.5228495c3.26695585 3.9173335 5.96026192 7.24761056 4.8821258 9.70092673 0 0-4.92687862-7.30196763-8.95056397-7.40343418-4.02368535-.10146655-1.3751321-4.43916147 3.03912332-8.82034205z"/>
    <g opacity=".1">
      <path fill="rgb(0,0,0)" fill-rule="evenodd" d="M307.84268292 225.1048951c-.19789351.25220996-.354382.5277352-.46483987.81843157-3.95730929 4.09215785-6.06348638 7.9127123-2.25838129 8.00686814 3.54183296.09053446 7.79120978 5.66745754 8.8113893 7.07617382-.03307926.10969615-.0743042.21736195-.12340881.3223027 0 0-4.98160245-7.29707792-9.04997967-7.39847652-4.06837723-.1013986-1.3780651-4.44705295 3.08522034-8.8252997z"/>
    </g>
    <path fill="rgb(255,208,55)" fill-rule="evenodd" d="M303.7712766 227.39996436c0 .41258267.23199028.74688879.51197855.74688879.27998827 0 .5039789-.32615231.5039789-.74688879 0-.42073647-.27998828-.21852204-.55997655-.21852204-.27998828 0-.4559809-.19406062-.4559809.21852204z"/>
    <path fill="rgb(255,208,55)" fill-rule="evenodd" d="M304.01310673 229.67191177c.39671576.35768706.74160829.57348174.77198742.4818429.03037914-.09163883-.26626418-.45228199-.66297994-.80996905-.39671576-.35768707-.24124607-.09755102-.2716252 0-.03037914.09755102-.23409804-.02956092.16261772.32812615z"/>
    <path fill="rgb(168,168,168)" fill-rule="evenodd" d="M305.80319149 240.4723509s5.73239235-.18475837 7.46405253-1.45112309c1.7316602-1.2663647 8.81877807-2.78292306 9.2479611-.76982657.42918301 2.01309649 8.61351662 10.1193703 2.14218307 10.17325816-6.47133355.05388786-15.03633383-1.03926587-16.76052996-2.1208722-1.72419614-1.08160634-2.09366674-5.8314363-2.09366674-5.8314363z"/>
    <g opacity=".2">
      <path fill="rgb(0,0,0)" fill-rule="evenodd" d="M324.774096 249.6505632c-6.47295325.06167628-15.04009726-1.18947104-16.76472494-2.42740202-1.31400205-.94276594-1.84034946-4.3305557-2.01206563-5.89448985h-.19411394s.37329603 5.45835047 2.0904578 6.69628144c1.71716176 1.23793098 10.29177169 2.4890783 16.76472494 2.42740203 1.86648018 0 2.51228232-.8017916 2.47868568-1.9604245-.26130723.70927717-.97430266 1.14541656-2.3629639 1.1586329z"/>
    </g>
  </g>
</svg>
