<svg xmlns="http://www.w3.org/2000/svg" width="126" height="94" viewBox="0 0 126 94">
  <g>
    <g opacity=".45">
      <ellipse cx="28.5" cy="28.5" fill="rgb(230,230,230)" rx="28.5" ry="28.5"/>
    </g>
    <path fill="rgb(244,162,140)" fill-rule="evenodd" d="M32.45218385 15.7303134s.8120313 3.86851708.45879769 6.54517776c-.06956997.52403404-.34797664.99891458-.77337738 1.31915612-.42540073.32024155-.9625714.4593274-1.49218997.38636231-1.36015243-.19262326-3.1466213-.85075272-3.83684792-2.86928394l-1.59970167-3.29064732s-.92571569-2.09477792 1.1206032-3.94877678c2.0463189-1.85399885 5.7451215-.52570097 6.12271605 1.85801184z"/>
    <path fill="rgb(244,162,140)" fill-rule="evenodd" d="M25.50280584 19L25 32l7-.22976744-2.44725028-9.36806202L25.50280584 19z"/>
    <path fill="rgb(36,40,91)" fill-rule="evenodd" d="M31.00623888 15.44761087c-1.22776814.20061963-2.47371184.254521-3.71335028.16064502.85951916 1.05737384 1.02955752 2.5430964.4325441 3.77938563-.55932348 1.22251522-1.87791848 1.86119381-3.14206562 1.52190025l-.54272043-5.31819588c-.21193441-1.54564681.41561908-3.08648936 1.63224188-4.00767066.51478993-.39292714 1.05315365-.75157775 1.61183886-1.07378518 1.40780862-.79477013 3.67254423-.042275 4.89672564-1.2344302.24702628-.2430607.59927584-.33353774.92729085-.23817922.32801501.09535852.58340366.36248442.6723062.7032043.40806047 1.58531276.42846349 4.16408818-1.57919402 5.30551337-.37422116.20178951-.7783011.33752157-1.19561718.40161257z"/>
    <path fill="rgb(244,162,140)" fill-rule="evenodd" d="M29 19.55367114s-.20763083-1.82489817-1.32564298-1.51913065c-1.11801215.3057675-.8265304 2.94119225.7307008 2.96545951L29 19.55367114z"/>
    <path fill="rgb(244,162,140)" fill-rule="evenodd" d="M32.49558716 18l1.33136552 1.44134078c.15232755.16681428.2089912.39954729.15033963.61748575-.05865158.21793846-.22453924.39106186-.44013212.4593299L32 21l.49558716-3z"/>
    <g opacity=".31">
      <path fill="rgb(206,129,114)" fill-rule="evenodd" d="M30.267658 24.25806452C29.4289402 24.12197545 28.64067055 23.68465462 28 23c0 0 .37174721 2.68663594 3 5l-.732342-3.74193548z"/>
    </g>
    <path fill="rgb(61,128,252)" fill-rule="evenodd" d="M9.00083363 49.99986837s-.4420783-18.03619412 19.0343906-18.96924434c19.4764689-.93305023 18.96349124 19.76483627 18.96349124 19.76483627s-18.37544368 16.72825764-37.99788184-.79559193z"/>
    <g opacity=".45">
      <ellipse cx="96.5" cy="28.5" fill="rgb(230,230,230)" rx="28.5" ry="28.5"/>
    </g>
    <path fill="rgb(244,162,140)" fill-rule="evenodd" d="M100.45200463 15.72585241s.81229696 3.86898164.45894778 6.5499772c-.0696363.52329952-.3475501.99756228-.77217797 1.31772961-.42462785.32016734-.96091714.45980974-1.49006907.38799363-1.3646589-.19665986-3.14765072-.85085488-3.83810314-2.87364196l-1.60022502-3.287029s-.93008002-2.09904294 1.12096981-3.94925097c2.05104983-1.85020802 5.747001-.52977756 6.12065761 1.8542215z"/>
    <path fill="rgb(244,162,140)" fill-rule="evenodd" d="M93.50280584 19L93 32l7-.22976744-2.44332211-9.36403101L93.50280584 19z"/>
    <path fill="rgb(244,162,140)" fill-rule="evenodd" d="M96 19.55321137s-.2081032-1.82062328-1.3246569-1.51961357c-1.11655371.30100972-.8324128 2.94212722.73236318 2.9664022L96 19.55321137z"/>
    <path fill="rgb(244,162,140)" fill-rule="evenodd" d="M100.50425641 18l1.32106845 1.44134078c.15315504.1667816.21063958.4008276.15230807.62011616-.05833151.21928857-.22434442.39323876-.43985924.46088943L100 21l.50425641-3z"/>
    <g opacity=".31">
      <path fill="rgb(206,129,114)" fill-rule="evenodd" d="M98.26394052 24.23388582C97.42837322 24.10442441 96.64151951 23.67557584 96 23c0 0 .35315985 2.68416206 3 5l-.73605948-3.76611418z"/>
    </g>
    <path fill="rgb(61,128,252)" fill-rule="evenodd" d="M77.00081084 49.99986837s-.43785997-18.03619412 19.03648324-18.96924434c19.4743432-.93305023 18.96142153 19.76483627 18.96142153 19.76483627s-18.37760825 16.72825764-37.99790477-.79559193z"/>
    <ellipse cx="47.5" cy="49.5" fill="rgb(255,210,0)" rx="9.5" ry="9.5"/>
    <ellipse cx="116.5" cy="49.5" fill="rgb(255,210,0)" rx="9.5" ry="9.5"/>
    <path fill="rgb(255,255,255)" fill-rule="evenodd" d="M46.99993591 55C46.44768656 55 46 54.52718242 46 53.9439324V45.0560676C46 44.47281756 46.44768656 44 46.99993591 44c.55224936 0 .99993592.47281756.99993592 1.05606759v8.87096773c.00428792.28300265-.09916617.55597895-.2871573.7576997-.18799112.20172077-.4447837.3153012-.71277862.31526497z"/>
    <path fill="rgb(255,255,255)" fill-rule="evenodd" d="M51.94555215 50h-8.8911043C42.47209238 50 42 49.55228475 42 49s.47209238-1 1.05444785-1h8.8911043C52.52790762 48 53 48.44771525 53 49s-.47209238 1-1.05444785 1z"/>
    <path fill="rgb(255,255,255)" fill-rule="evenodd" d="M115.99993591 55C115.44768656 55 115 54.52718242 115 53.9439324V45.0560676C115 44.47281756 115.44768656 44 115.99993591 44c.55224936 0 .99993592.47281756.99993592 1.05606759v8.87096773c.00428792.28300265-.09916617.55597895-.2871573.7576997-.18799112.20172077-.4447837.3153012-.71277862.31526497z"/>
    <path fill="rgb(255,255,255)" fill-rule="evenodd" d="M120.9459563 50h-8.8919126C111.47191143 50 111 49.55228475 111 49s.47191144-1 1.0540437-1h8.8919126C121.52808857 48 122 48.44771525 122 49s-.47191144 1-1.0540437 1z"/>
    <path fill="rgb(36,40,91)" fill-rule="evenodd" d="M96.98179258 16.97407177L103 16.4226908s-.74242531-4.51012398-4.97715293-5.2811958c-4.23472762-.77107181-6.67353255 1.64983523-6.98875224 6.27195847-.31521969 4.62212324 1.65905098 6.58641793 1.65905098 6.58641793s5.47486822.12061458 4.28864677-7.02579963z"/>
    <path fill="rgb(36,40,91)" fill-rule="evenodd" d="M93.86761498 12.23910204s-4.93934192 1.00496652-4.93934192 8.63209044c0 7.62712392-5.8457531 11.31608637-1.0182152 15.90379937 4.82753791 4.587713 12.57395936 1.60141005 9.31167775-4.587713-3.26228161-6.18912305 1.87671035-8.41557326 0-15.11535003s-3.35412063-4.83282678-3.35412063-4.83282678z"/>
    <rect width="44" height="28" x="8" y="66" fill="rgb(36,40,91)" rx="0" ry="0"/>
    <rect width="19" height="9" x="20" y="80" fill="rgb(61,128,252)" rx="0" ry="0"/>
    <g opacity=".09">
      <rect width="26" height="3" x="17" y="71" fill="rgb(255,255,255)" rx="0" ry="0"/>
    </g>
    <rect width="44" height="28" x="76" y="66" fill="rgb(36,40,91)" rx="0" ry="0"/>
    <rect width="19" height="9" x="88" y="80" fill="rgb(61,128,252)" rx="0" ry="0"/>
    <g opacity=".09">
      <rect width="26" height="3" x="85" y="71" fill="rgb(255,255,255)" rx="0" ry="0"/>
    </g>
  </g>
</svg>
